<svg xmlns="http://www.w3.org/2000/svg" viewBox="0 0 1280 160" width="1280" height="160" role="img" aria-label="02 · EXPERIENCE"><title>02 · EXPERIENCE</title><defs><filter id="glow" x="-50%" y="-50%" width="200%" height="200%"><feGaussianBlur stdDeviation="4" result="b"/><feMerge><feMergeNode in="b"/><feMergeNode in="SourceGraphic"/></feMerge></filter><filter id="bloom" x="-50%" y="-50%" width="200%" height="200%"><feGaussianBlur stdDeviation="9"/></filter><radialGradient id="spark"><stop offset="0" stop-color="#fff"/><stop offset=".25" stop-color="#FFE2C4"/><stop offset=".55" stop-color="#FF4D12" stop-opacity=".55"/><stop offset="1" stop-color="#FF4D12" stop-opacity="0"/></radialGradient></defs><rect width="1280" height="160" rx="10" fill="#FFFFFF"/><path d="M32 0V160M64 0V160M96 0V160M128 0V160M160 0V160M192 0V160M224 0V160M256 0V160M288 0V160M320 0V160M352 0V160M384 0V160M416 0V160M448 0V160M480 0V160M512 0V160M544 0V160M576 0V160M608 0V160M640 0V160M672 0V160M704 0V160M736 0V160M768 0V160M800 0V160M832 0V160M864 0V160M896 0V160M928 0V160M960 0V160M992 0V160M1024 0V160M1056 0V160M1088 0V160M1120 0V160M1152 0V160M1184 0V160M1216 0V160M1248 0V160M0 32H1280M0 64H1280M0 96H1280M0 128H1280" stroke="#F5F3EF" stroke-width="1" fill="none"/><path d="M10 22V10H22M1258 10H1270V22M1270 138V150H1258M22 150H10V138" stroke="#A8A29A" stroke-width="1.5" fill="none"/><path d="M45.1 46V37.6H48.1Q49.3 37.6 49.9 38.3Q50.5 38.9 50.5 40Q50.5 41.2 49.9 41.8Q49.3 42.4 48.1 42.4H46.1V46ZM46.1 41.6H48.1Q48.7 41.6 49.1 41.3Q49.4 40.9 49.4 40.3V39.7Q49.4 39.1 49.1 38.8Q48.7 38.5 48.1 38.5H46.1ZM56 46V37.6H57V45.1H61V46ZM70.9 46 70.2 43.6H67.2L66.5 46H65.5L68.1 37.6H69.4L72 46ZM68.8 38.7H68.7L67.5 42.7H69.9ZM79.8 38.5V46H78.8V38.5H76V37.6H82.6V38.5ZM87.3 46V37.6H92.5V38.5H88.3V41.3H92.3V42.2H88.3V45.1H92.5V46ZM111 46.1Q110.2 46.1 109.6 45.8Q109.1 45.6 108.7 45Q108.4 44.5 108.2 43.6Q108 42.8 108 41.8Q108 40.8 108.2 40Q108.4 39.2 108.7 38.6Q109.1 38.1 109.6 37.8Q110.2 37.5 111 37.5Q111.7 37.5 112.3 37.8Q112.8 38.1 113.2 38.6Q113.6 39.2 113.7 40Q113.9 40.8 113.9 41.8Q113.9 42.8 113.7 43.6Q113.6 44.5 113.2 45Q112.8 45.6 112.3 45.8Q111.7 46.1 111 46.1ZM111 45.3Q111.5 45.3 111.8 45.1Q112.2 44.9 112.4 44.5Q112.6 44.2 112.7 43.6Q112.8 43.1 112.8 42.5V41.1Q112.8 40.5 112.7 40Q112.6 39.5 112.4 39.1Q112.2 38.8 111.8 38.6Q111.5 38.4 111 38.4Q110.5 38.4 110.1 38.6Q109.7 38.8 109.5 39.1Q109.3 39.5 109.2 40Q109.1 40.5 109.1 41.1V42.5Q109.1 43.1 109.2 43.6Q109.3 44.2 109.5 44.5Q109.7 44.9 110.1 45.1Q110.5 45.3 111 45.3ZM111 42.5Q110.5 42.5 110.4 42.4Q110.2 42.2 110.2 41.9V41.7Q110.2 41.4 110.4 41.3Q110.5 41.1 111 41.1Q111.4 41.1 111.5 41.3Q111.7 41.4 111.7 41.7V41.9Q111.7 42.2 111.5 42.4Q111.4 42.5 111 42.5ZM124.4 46H118.8V45L121.6 42.4Q122.2 41.9 122.6 41.3Q123 40.7 123 40.1V39.9Q123 39.2 122.6 38.8Q122.2 38.4 121.4 38.4Q120.6 38.4 120.2 38.7Q119.8 39.1 119.6 39.8L118.7 39.4Q118.8 39.1 119 38.7Q119.2 38.4 119.6 38.1Q119.9 37.8 120.4 37.6Q120.8 37.5 121.4 37.5Q122 37.5 122.5 37.7Q123 37.8 123.4 38.2Q123.7 38.5 123.9 38.9Q124 39.4 124 39.9Q124 40.4 123.9 40.8Q123.8 41.2 123.5 41.6Q123.3 42 122.9 42.4Q122.6 42.7 122.2 43.1L119.8 45.1H124.4ZM153.2 43.2Q152.7 43.2 152.5 43Q152.3 42.8 152.3 42.5V42.2Q152.3 41.9 152.5 41.7Q152.7 41.5 153.2 41.5Q153.7 41.5 153.9 41.7Q154.1 41.9 154.1 42.2V42.5Q154.1 42.8 153.9 43Q153.7 43.2 153.2 43.2Z" fill="#6E6962" ><title>PLATE 02  ·  </title></path><path d="M184.8 46.1Q183.7 46.1 183 45.8Q182.2 45.4 181.7 44.7L182.6 43.9Q183.1 44.5 183.6 44.8Q184.2 45 184.9 45Q185.6 45 186.1 44.7Q186.5 44.3 186.5 43.6Q186.5 43.1 186.2 42.8Q185.9 42.5 185.1 42.4L184.2 42.2Q183.6 42.1 183.2 41.9Q182.8 41.7 182.5 41.4Q182.3 41.1 182.2 40.7Q182.1 40.3 182.1 39.9Q182.1 38.7 182.8 38.1Q183.6 37.5 184.9 37.5Q185.9 37.5 186.6 37.8Q187.3 38.1 187.8 38.7L186.9 39.5Q186.6 39.1 186.1 38.9Q185.6 38.6 184.9 38.6Q184.2 38.6 183.8 38.9Q183.4 39.2 183.4 39.8Q183.4 40.4 183.7 40.7Q184 40.9 184.8 41.1L185.7 41.2Q186.8 41.4 187.3 42.1Q187.9 42.7 187.9 43.6Q187.9 44.1 187.7 44.6Q187.5 45.1 187.1 45.4Q186.7 45.8 186.1 46Q185.5 46.1 184.8 46.1ZM192.8 46V45H194.8V38.6H192.8V37.6H198.1V38.6H196.1V45H198.1V46ZM204.5 39.6H204.4V46H203.3V37.6H205L207.5 44.1H207.6V37.6H208.7V46H207ZM218.1 44.8H218Q217.9 45.1 217.8 45.3Q217.6 45.6 217.4 45.7Q217.2 45.9 216.9 46Q216.6 46.1 216.2 46.1Q214.8 46.1 214.2 45Q213.5 43.9 213.5 41.9Q213.5 39.7 214.3 38.6Q215 37.5 216.6 37.5Q217.2 37.5 217.7 37.6Q218.1 37.8 218.5 38.1Q218.8 38.4 219 38.8Q219.2 39.1 219.3 39.6L218.1 40Q218 39.7 217.9 39.4Q217.8 39.2 217.6 39Q217.4 38.8 217.2 38.7Q217 38.6 216.6 38.6Q215.7 38.6 215.3 39.3Q215 40 215 41.1V42.4Q215 43 215 43.5Q215.1 44 215.3 44.3Q215.5 44.7 215.8 44.8Q216.2 45 216.6 45Q217.3 45 217.7 44.6Q218.1 44.2 218.1 43.5V42.7H216.5V41.7H219.3V46H218.1ZM225.7 37.6V42.8Q225.7 43.3 225.7 43.7Q225.8 44.1 225.9 44.4Q226 44.7 226.3 44.9Q226.6 45 227.1 45Q227.6 45 227.9 44.9Q228.2 44.7 228.3 44.4Q228.5 44.1 228.5 43.7Q228.5 43.3 228.5 42.8V37.6H229.9V42.5Q229.9 43.4 229.8 44.1Q229.7 44.8 229.4 45.2Q229.1 45.7 228.5 45.9Q228 46.1 227.1 46.1Q226.2 46.1 225.7 45.9Q225.2 45.7 224.9 45.2Q224.6 44.8 224.5 44.1Q224.3 43.4 224.3 42.5V37.6ZM235.4 46V37.6H236.7V44.9H240.5V46ZM250.2 46 249.5 43.8H246.9L246.2 46H244.9L247.3 37.6H249.2L251.6 46ZM248.3 39H248.2L247.1 42.7H249.3ZM257.5 46H256.2V37.6H259.3Q260.5 37.6 261.2 38.3Q261.8 39 261.8 40.1Q261.8 41.1 261.3 41.7Q260.9 42.4 260 42.5L261.9 46H260.4L258.7 42.6H257.5ZM259.1 41.5Q260.4 41.5 260.4 40.4V39.9Q260.4 38.7 259.1 38.7H257.5V41.5ZM266.7 46V45H268.7V38.6H266.7V37.6H272V38.6H270V45H272V46ZM280.6 38.8V46H279.2V38.8H276.6V37.6H283.2V38.8ZM289.8 46V42.8L287 37.6H288.5L289.6 39.7L290.5 41.5H290.5L291.4 39.7L292.5 37.6H293.9L291.2 42.8V46Z" fill="#FF4D12" ><title>SINGULARITY</title></path><path d="M45 116V70.6H88.9V81.7H60.5V87.8H84.9V98.3H60.5V104.9H89.4V116ZM93.4 116 112.3 92.2 95.2 70.6H114.5L122.4 81.7H122.8L131 70.6H148.8L131.5 92L150.5 116H131.1L121.5 102.5H121.1L111.3 116ZM155.8 116V70.6H187.5Q191.9 70.6 195.2 72.6Q198.6 74.6 200.5 78Q202.4 81.5 202.4 86.2Q202.4 90.9 200.4 94.5Q198.5 98 195.2 100Q191.8 101.9 187.5 101.9H171.3V116ZM171.3 91H182.8Q185.2 91 186.4 89.8Q187.6 88.6 187.6 86.3Q187.6 84.7 187 83.7Q186.5 82.7 185.4 82.1Q184.4 81.6 182.8 81.6H171.3ZM209 116V70.6H252.9V81.7H224.5V87.8H248.9V98.3H224.5V104.9H253.4V116ZM261.8 116V70.6H295.7Q300.8 70.6 304.2 72.7Q307.6 74.8 309.3 78.1Q311 81.5 311 85.4Q311 89.8 308.9 93.3Q306.9 96.7 303.2 98.8L312.2 116H294.8L287.9 101.3H277.2V116ZM277.2 90.6H291Q292.8 90.6 294 89.3Q295.2 88.1 295.2 85.9Q295.2 84.5 294.7 83.5Q294.1 82.5 293.1 82Q292.2 81.4 291 81.4H277.2ZM319.2 116V70.6H334.7V116ZM345.2 116V70.6H389.1V81.7H360.7V87.8H385.1V98.3H360.7V104.9H389.6V116ZM398 116V70.6H411.3L429.6 88.2Q430.1 88.7 430.9 89.6Q431.8 90.6 432.7 91.6Q433.6 92.6 434.2 93.3L434.7 93.2Q434.7 91.8 434.7 90.2Q434.7 88.5 434.7 87.3V70.6H448.9V116H435.7L417.1 98Q415.9 96.7 414.7 95.5Q413.6 94.3 412.7 93.4L412.2 93.4Q412.3 94.5 412.3 96Q412.3 97.5 412.3 98.6V116ZM483.8 116.8Q475.1 116.8 469.2 114.1Q463.3 111.4 460.4 106.2Q457.4 101 457.4 93.3Q457.4 81.8 464.2 75.8Q470.9 69.8 483.9 69.8Q491.2 69.8 496.6 72.1Q502.1 74.5 505.1 78.8Q508.2 83.2 508.2 89.3H493.3Q493.3 86.8 492.1 84.9Q491 83 488.9 81.9Q486.8 80.9 483.7 80.9Q480.1 80.9 477.8 82.3Q475.5 83.7 474.4 86.2Q473.3 88.7 473.3 91.8V94.7Q473.3 97.8 474.4 100.3Q475.5 102.8 477.7 104.3Q480 105.7 483.5 105.7Q486.8 105.7 489.1 104.7Q491.4 103.7 492.6 101.9Q493.7 100 493.7 97.6H508.2Q508.2 103.5 505.3 107.8Q502.4 112.1 497 114.4Q491.5 116.8 483.8 116.8ZM516.8 116V70.6H560.7V81.7H532.3V87.8H556.7V98.3H532.3V104.9H561.2V116Z" fill="#0A0A0B" ><title>EXPERIENCE</title></path><path d="M841.3 82Q841.2 82 841.2 81.8Q841.2 81.7 841.3 81.7Q842.2 81.7 842.6 81.5Q843.1 81.4 843.3 81Q843.5 80.6 843.7 79.8L845.9 67.3Q846.1 66.2 845.8 65.9Q845.6 65.6 844.5 65.6H843.9Q842.8 65.6 842 66Q841.3 66.4 840.7 67.2Q840.2 68.1 839.8 69.5Q839.8 69.6 839.6 69.5Q839.5 69.5 839.5 69.4Q839.6 69.1 839.7 68.4Q839.9 67.8 840.1 67.1Q840.3 66.3 840.4 65.7Q840.6 65 840.7 64.5Q840.7 64.5 840.9 64.5Q841 64.5 841 64.6Q840.9 65 841.3 65Q841.7 65.1 842 65.1Q843 65.2 844.4 65.2Q845.7 65.2 847 65.2Q848.6 65.2 849.7 65.2Q850.8 65.1 851.7 65.1Q852.5 65.1 852.9 65Q853.3 64.9 853.5 64.5Q853.6 64.4 853.7 64.4Q853.8 64.4 853.8 64.5Q853.7 64.9 853.5 65.6Q853.4 66.3 853.2 67Q853 67.8 852.9 68.4Q852.8 69.1 852.7 69.4Q852.7 69.5 852.6 69.5Q852.4 69.5 852.4 69.4Q852.7 68 852.5 67.2Q852.4 66.4 851.8 66Q851.1 65.6 850 65.6H849.3Q848.3 65.6 847.9 65.9Q847.6 66.3 847.4 67.4L845.2 79.8Q845.1 80.6 845.2 81Q845.3 81.4 845.7 81.5Q846.1 81.7 847 81.7Q847.1 81.7 847.1 81.8Q847.1 82 847 82Q846.4 82 845.7 82Q845 81.9 844.1 81.9Q843.3 81.9 842.6 82Q841.8 82 841.3 82ZM857.4 82.4Q856.4 82.4 855.9 81.8Q855.3 81.2 855.1 80.4Q854.9 79.5 855 78.5Q855.2 77.3 855.8 76Q856.4 74.7 856.9 73.6Q857.1 73.3 857 73.1Q856.9 72.9 856.6 72.9H855.3Q854.6 72.9 854.2 73Q853.9 73.1 853.7 73.4Q853.4 73.7 853.2 74.4Q853.2 74.5 853 74.4Q852.9 74.4 853 74.2Q853.4 73.1 853.7 72.5Q853.9 71.9 854.4 71.7Q854.8 71.6 855.6 71.6H858Q858.3 71.6 858.3 71.6Q858.4 71.7 858.2 71.9Q857.6 73.3 857.1 74.9Q856.6 76.5 856.4 77.8Q856.2 79.3 856.7 80.2Q857.2 81.1 858.1 81.1Q858.8 81.1 859.5 80.7Q860.2 80.2 860.8 79.4Q861.5 78.6 861.9 77.5Q862.4 76.4 862.6 75.1Q862.7 74.2 862.5 73.6Q862.3 73.1 861.9 73.1Q861.5 73.1 861.3 73.7Q861 74.3 860.9 75Q860.8 76.2 860.8 77.3Q860.9 78.4 861.3 79.2Q861.7 80.1 862.3 80.6Q862.9 81.1 863.7 81.1Q864.3 81.1 865 80.6Q865.8 80 866.4 79Q866.9 78.1 867.2 76.7Q867.3 75.6 867.2 74.9Q867.2 74.2 866.9 73.8Q866.7 73.4 866.4 73.1Q866.2 72.9 866.1 72.7Q865.9 72.5 865.9 72.2Q865.9 71.7 866.3 71.5Q866.7 71.3 867 71.3Q867.6 71.3 867.9 71.9Q868.2 72.5 868.2 73.5Q868.2 74.4 868.1 75.4Q867.9 77 867.3 78.3Q866.7 79.5 866 80.5Q865.2 81.4 864.4 81.9Q863.6 82.4 862.9 82.4Q862.1 82.4 861.6 81.8Q861 81.2 860.6 80.3Q860.3 79.3 860.2 78.1Q860.1 76.9 860.4 75.6Q860.6 74.4 860.9 73.5Q861.2 72.5 861.6 72Q862 71.4 862.5 71.4Q863.1 71.4 863.3 72.3Q863.6 73.1 863.3 74.3Q863 76.3 862.4 77.8Q861.7 79.2 860.8 80.3Q860 81.3 859.1 81.8Q858.2 82.4 857.4 82.4ZM873.2 82.4Q871.9 82.4 871.1 81.6Q870.2 80.9 869.9 79.6Q869.6 78.3 869.9 76.8Q870.2 75.2 871.1 73.9Q871.9 72.7 873.1 72Q874.3 71.2 875.6 71.2Q877 71.2 877.9 72Q878.7 72.8 879 74Q879.3 75.3 879 76.8Q878.6 78.5 877.7 79.8Q876.8 81 875.6 81.7Q874.4 82.4 873.2 82.4ZM874.1 81.7Q875.3 81.7 876.2 80.7Q877.1 79.7 877.4 78Q877.6 77 877.6 75.9Q877.5 74.8 877.2 73.9Q876.9 73 876.3 72.4Q875.7 71.9 874.8 71.9Q873.7 71.9 872.7 72.9Q871.8 73.9 871.4 75.6Q871.2 76.7 871.3 77.7Q871.4 78.8 871.7 79.7Q872.1 80.6 872.7 81.1Q873.3 81.7 874.1 81.7ZM888.8 82.3Q887.8 82.3 887.1 81.8Q886.3 81.3 886.4 80.6Q886.5 80.2 886.7 80.1Q886.9 79.9 887.2 79.9Q887.6 79.9 887.7 80.2Q887.9 80.4 888.1 80.8Q888.3 81.1 888.6 81.4Q889 81.7 889.6 81.7Q890.4 81.7 890.8 81.3Q891.3 80.9 891.4 80.1Q891.5 79.2 891.1 78.6Q890.8 78 890.2 77.5Q889.6 77 889 76.5Q888.4 76 888.1 75.4Q887.7 74.8 887.9 74Q888.1 73.1 888.6 72.5Q889.2 71.9 889.9 71.6Q890.7 71.3 891.5 71.3Q892.5 71.3 893.1 71.7Q893.7 72.1 893.7 72.7Q893.6 73 893.3 73.2Q893.1 73.4 892.8 73.4Q892.5 73.4 892.2 73.2Q892 73 891.8 72.7Q891.6 72.4 891.3 72.1Q891 71.9 890.5 71.9Q890 71.9 889.6 72.2Q889.2 72.4 889.1 73Q889 73.8 889.3 74.4Q889.7 75 890.3 75.5Q890.9 76 891.5 76.5Q892.1 77.1 892.4 77.7Q892.7 78.4 892.6 79.2Q892.5 80 892 80.7Q891.4 81.4 890.6 81.9Q889.8 82.3 888.8 82.3ZM897.5 82.3Q897 82.3 896.5 82.1Q896.1 81.9 895.8 81.4Q895.6 80.9 895.8 80L896.9 73.7Q897.1 72.7 897 72.5Q896.8 72.3 896 72.3Q895.9 72.3 895.9 72.1Q896 71.9 896 71.9Q897 71.9 897.7 71.3Q898.3 70.7 898.6 69.8Q898.6 69.8 898.8 69.8Q899 69.8 899 69.8L897.3 79.2Q897.1 80.3 897.4 80.8Q897.7 81.3 898.6 81.3Q899.4 81.3 900 81Q900.6 80.6 901.2 80.1Q901.2 80.1 901.3 80.2Q901.5 80.3 901.4 80.3Q900.2 81.4 899.3 81.9Q898.3 82.3 897.5 82.3ZM901.4 72.8Q901.4 72.8 900.8 72.7Q900.3 72.6 899.6 72.6Q898.9 72.5 898.2 72.5L898.2 71.8Q898.9 71.8 899.7 71.8Q900.6 71.7 901.2 71.7Q901.9 71.7 902.1 71.7Q902.2 71.7 902.3 71.7Q902.3 71.8 902.3 71.9Q902.3 72.1 902 72.4Q901.7 72.8 901.4 72.8ZM904.4 82.4Q903.5 82.4 903.1 81.7Q902.6 81.1 902.8 79.5Q903 78.1 903.7 76.6Q904.4 75.1 905.5 73.9Q906.5 72.7 907.7 72Q908.8 71.2 909.9 71.2Q910.4 71.2 910.9 71.4Q911.4 71.6 911.7 72Q912.1 72.4 912.1 73.1L910.9 72.4Q911.3 72.3 911.7 71.9Q912.2 71.5 912.3 71Q912.4 70.9 912.5 71Q912.7 71 912.6 71L911.1 79.6Q910.8 81.2 911.5 81.2Q911.8 81.2 912.3 80.8Q912.7 80.5 913.3 79.9Q913.4 79.8 913.5 79.9Q913.6 80.1 913.5 80.1Q912.6 81.1 911.9 81.7Q911.2 82.2 910.5 82.2Q909.8 82.2 909.6 81.6Q909.4 81.1 909.7 79.6L910.4 75.8L910.8 75.4Q910 77.4 908.9 79Q907.8 80.6 906.7 81.5Q905.5 82.4 904.4 82.4ZM905.4 81Q906.1 81 907 80.4Q907.8 79.8 908.5 78.9Q909.2 77.9 909.8 76.8Q910.4 75.6 910.6 74.5Q910.8 73.5 910.4 72.8Q910 72.2 909 72.2Q908 72.2 907.1 73Q906.1 73.8 905.3 75.2Q904.6 76.6 904.3 78.3Q904.1 79.7 904.4 80.4Q904.6 81 905.4 81ZM917.9 82.4Q916.6 82.4 915.8 81.7Q915.1 81.1 915.3 79.9L918 65.3Q918.2 64.3 917.8 64.1Q917.4 63.8 916.2 64.4Q916.1 64.5 916 64.3Q916 64.2 916.1 64.1L919.5 62.4Q919.7 62.4 919.8 62.5Q919.9 62.6 919.9 62.6L916.8 79.4Q916.6 80.4 917.3 81Q917.9 81.6 919 81.6Q919.9 81.6 920.8 81Q921.6 80.4 922.3 79.1Q923 77.8 923.3 76.1Q923.6 75.1 923.5 74.3Q923.4 73.4 923 72.9Q922.7 72.4 921.9 72.4Q920.8 72.4 919.7 73.3Q918.7 74.2 918 75.8Q917.2 77.3 916.8 79.4L916.6 78.9Q916.9 77.3 917.5 75.9Q918.1 74.5 919 73.5Q919.9 72.4 920.9 71.8Q921.9 71.2 923 71.2Q924.3 71.2 924.9 72.3Q925.4 73.5 925.1 75.2Q924.7 77 923.9 78.3Q923.1 79.7 922.1 80.5Q921 81.4 919.9 81.9Q918.8 82.4 917.9 82.4ZM928.1 82.2Q927.4 82.2 927.2 81.6Q927.1 81.1 927.3 79.6L930 65.3Q930.2 64.3 929.8 64.1Q929.4 63.8 928.2 64.4Q928.1 64.5 928 64.3Q928 64.2 928.1 64.1L931.5 62.4Q931.7 62.4 931.8 62.5Q931.9 62.6 931.8 62.6L928.7 79.6Q928.6 80.4 928.7 80.8Q928.8 81.2 929.1 81.2Q929.4 81.2 929.9 80.8Q930.4 80.5 930.9 79.9Q931 79.8 931.1 79.9Q931.3 80 931.1 80.1Q930.3 81.1 929.5 81.7Q928.8 82.2 928.1 82.2ZM936.2 82.3Q934.8 82.3 934 81.6Q933.2 80.8 932.9 79.6Q932.7 78.4 932.9 77Q933.1 76 933.6 75Q934.2 73.9 935 73.1Q935.9 72.3 936.9 71.7Q937.9 71.2 939.1 71.2Q940.1 71.2 940.6 71.6Q941 72 940.9 72.7Q940.8 73.3 940.2 73.9Q939.5 74.5 938.6 75Q937.6 75.5 936.4 75.8Q935.2 76.2 933.9 76.3L934 76Q936 75.7 937.4 75Q938.9 74.3 939.1 73.3Q939.3 72.5 938.9 72.2Q938.4 72 937.9 72Q937 72 936.3 72.5Q935.6 73.1 935.2 74Q934.8 75 934.6 76.1Q934.3 77.6 934.5 78.8Q934.7 80 935.4 80.7Q936.1 81.4 937.3 81.4Q937.9 81.4 938.6 81.2Q939.3 81 940 80.5Q940.1 80.5 940.2 80.6Q940.3 80.7 940.2 80.8Q939.2 81.6 938.2 82Q937.2 82.3 936.2 82.3ZM950.6 82.2Q949.9 82.2 949.7 81.7Q949.5 81.1 949.8 79.6L950.9 74Q951.2 72.4 950.4 72.4Q950.2 72.4 949.7 72.7Q949.2 73 948.6 73.6Q948.5 73.7 948.4 73.6Q948.3 73.5 948.4 73.4Q949.3 72.4 950 71.8Q950.8 71.3 951.5 71.3Q952.2 71.3 952.4 71.9Q952.6 72.5 952.3 73.9L951.2 79.6Q951 80.4 951.1 80.8Q951.3 81.2 951.6 81.2Q951.9 81.2 952.4 80.9Q952.9 80.5 953.4 80Q953.6 79.9 953.7 80Q953.8 80.1 953.7 80.2Q952.8 81.2 952 81.7Q951.3 82.2 950.6 82.2ZM952.3 68.1Q951.7 68.1 951.4 67.9Q951.1 67.6 951.1 67Q951.1 66.5 951.4 66.2Q951.7 65.9 952.3 65.9Q952.9 65.9 953.1 66.2Q953.4 66.5 953.4 67Q953.4 68.1 952.3 68.1ZM963.4 82.2Q962.7 82.2 962.5 81.6Q962.4 81.1 962.6 79.6L963.4 75.3Q964 72.3 962.4 72.3Q961.5 72.3 960.6 73.4Q959.7 74.5 958.8 76.6Q958 78.8 957.4 81.8L957.1 81.8Q957.6 78.6 958.6 76.2Q959.5 73.9 960.7 72.6Q962 71.2 963.3 71.2Q964.5 71.2 964.9 72.1Q965.2 72.9 964.9 74.8L964 79.6Q963.8 80.4 964 80.8Q964.1 81.2 964.4 81.2Q964.7 81.2 965.2 80.8Q965.6 80.5 966.2 79.9Q966.3 79.8 966.4 79.9Q966.5 80 966.4 80.1Q965.6 81.1 964.8 81.7Q964.1 82.2 963.4 82.2ZM956.5 82.2Q956.1 82.2 956 82.2Q955.9 82.1 955.9 82.1Q955.9 81.9 956.1 81.3Q956.2 80.7 956.3 80L957.4 74Q957.7 72.4 957 72.4Q956.7 72.4 956.2 72.7Q955.7 73 955.1 73.6Q955 73.7 954.9 73.6Q954.8 73.5 954.9 73.4Q955.8 72.4 956.6 71.8Q957.3 71.3 958 71.3Q958.7 71.3 958.9 71.9Q959 72.5 958.8 73.9L957.4 81.8Q957.3 82.2 956.5 82.2ZM970.1 82.3Q969.6 82.3 969.1 82.1Q968.7 81.9 968.4 81.4Q968.2 80.9 968.4 80L969.5 73.7Q969.7 72.7 969.6 72.5Q969.4 72.3 968.6 72.3Q968.5 72.3 968.5 72.1Q968.6 71.9 968.6 71.9Q969.6 71.9 970.3 71.3Q970.9 70.7 971.2 69.8Q971.2 69.8 971.4 69.8Q971.6 69.8 971.6 69.8L969.9 79.2Q969.7 80.3 970 80.8Q970.3 81.3 971.2 81.3Q972 81.3 972.6 81Q973.2 80.6 973.8 80.1Q973.8 80.1 974 80.2Q974.1 80.3 974 80.3Q972.8 81.4 971.9 81.9Q970.9 82.3 970.1 82.3ZM974 72.8Q974 72.8 973.4 72.7Q972.9 72.6 972.2 72.6Q971.5 72.5 970.8 72.5L970.8 71.8Q971.5 71.8 972.3 71.8Q973.2 71.7 973.8 71.7Q974.5 71.7 974.7 71.7Q974.8 71.7 974.9 71.7Q974.9 71.8 974.9 71.9Q974.9 72.1 974.6 72.4Q974.3 72.8 974 72.8ZM979 82.3Q977.6 82.3 976.8 81.6Q975.9 80.8 975.7 79.6Q975.4 78.4 975.7 77Q975.9 76 976.4 75Q977 73.9 977.8 73.1Q978.6 72.3 979.7 71.7Q980.7 71.2 981.8 71.2Q982.8 71.2 983.3 71.6Q983.8 72 983.7 72.7Q983.5 73.3 982.9 73.9Q982.3 74.5 981.3 75Q980.4 75.5 979.2 75.8Q978 76.2 976.7 76.3L976.7 76Q978.8 75.7 980.2 75Q981.6 74.3 981.9 73.3Q982.1 72.5 981.6 72.2Q981.2 72 980.7 72Q979.7 72 979.1 72.5Q978.4 73.1 978 74Q977.5 75 977.3 76.1Q977 77.6 977.3 78.8Q977.5 80 978.2 80.7Q978.9 81.4 980 81.4Q980.7 81.4 981.4 81.2Q982.1 81 982.8 80.5Q982.8 80.5 982.9 80.6Q983 80.7 983 80.8Q981.9 81.6 981 82Q980 82.3 979 82.3ZM987.1 81.8 986.8 81.8Q987 80.6 987.4 79.2Q987.8 77.7 988.3 76.4Q988.8 75 989.4 73.8Q990 72.7 990.7 72Q991.3 71.3 991.9 71.3Q992.3 71.3 992.6 71.5Q993 71.7 993.2 72.1Q993.4 72.4 993.4 72.8Q993.3 73.1 993 73.3Q992.8 73.5 992.5 73.5Q992.1 73.5 991.9 73.3Q991.7 73.1 991.5 72.9Q991.4 72.6 991.1 72.6Q990.7 72.6 990.3 73.3Q989.8 73.9 989.3 74.9Q988.8 76 988.4 77.2Q988 78.4 987.6 79.7Q987.2 80.9 987.1 81.8ZM986.2 82.2Q985.8 82.2 985.7 82.2Q985.6 82.1 985.6 82.1Q985.6 81.9 985.8 81.3Q985.9 80.6 986 80L986.9 75Q987.1 73.9 987.1 73.4Q987 72.8 986.8 72.6Q986.7 72.4 986.4 72.4Q986.1 72.4 985.6 72.7Q985.2 73 984.8 73.4Q984.7 73.5 984.6 73.4Q984.5 73.3 984.6 73.2Q985.4 72.3 986.1 71.8Q986.8 71.3 987.5 71.3Q988 71.3 988.2 71.6Q988.5 72 988.5 72.7Q988.6 73.5 988.3 75L987.1 81.8Q987 82.2 986.2 82.2ZM1002.4 82.2Q1001.7 82.2 1001.5 81.6Q1001.3 81.1 1001.6 79.6L1002.4 75.3Q1003 72.3 1001.4 72.3Q1000.5 72.3 999.6 73.4Q998.6 74.5 997.8 76.6Q996.9 78.8 996.3 81.8L996 81.8Q996.6 78.6 997.5 76.2Q998.5 73.9 999.7 72.6Q1000.9 71.2 1002.3 71.2Q1003.4 71.2 1003.8 72.1Q1004.2 72.9 1003.8 74.8L1002.9 79.6Q1002.8 80.4 1002.9 80.8Q1003.1 81.2 1003.4 81.2Q1003.7 81.2 1004.2 80.8Q1004.6 80.5 1005.2 79.9Q1005.3 79.8 1005.4 79.9Q1005.5 80 1005.4 80.1Q1004.5 81.1 1003.8 81.7Q1003.1 82.2 1002.4 82.2ZM995.5 82.2Q995.1 82.2 995 82.2Q994.9 82.1 994.9 82.1Q994.9 81.9 995 81.3Q995.2 80.7 995.3 80L996.4 74Q996.6 72.4 995.9 72.4Q995.6 72.4 995.1 72.7Q994.6 73 994.1 73.6Q994 73.7 993.9 73.6Q993.7 73.5 993.8 73.4Q994.8 72.4 995.5 71.8Q996.3 71.3 997 71.3Q997.6 71.3 997.8 71.9Q998 72.5 997.8 73.9L996.3 81.8Q996.3 82.2 995.5 82.2ZM1008.6 82.3Q1007.5 82.3 1006.8 81.8Q1006 81.3 1006.1 80.6Q1006.2 80.2 1006.4 80.1Q1006.7 79.9 1006.9 79.9Q1007.3 79.9 1007.5 80.2Q1007.6 80.4 1007.8 80.8Q1008 81.1 1008.4 81.4Q1008.7 81.7 1009.4 81.7Q1010.1 81.7 1010.5 81.3Q1011 80.9 1011.1 80.1Q1011.2 79.2 1010.8 78.6Q1010.5 78 1009.9 77.5Q1009.3 77 1008.7 76.5Q1008.1 76 1007.8 75.4Q1007.4 74.8 1007.6 74Q1007.8 73.1 1008.3 72.5Q1008.9 71.9 1009.6 71.6Q1010.4 71.3 1011.2 71.3Q1012.2 71.3 1012.8 71.7Q1013.5 72.1 1013.4 72.7Q1013.3 73 1013 73.2Q1012.8 73.4 1012.5 73.4Q1012.2 73.4 1012 73.2Q1011.7 73 1011.5 72.7Q1011.3 72.4 1011 72.1Q1010.8 71.9 1010.2 71.9Q1009.7 71.9 1009.3 72.2Q1008.9 72.4 1008.8 73Q1008.7 73.8 1009.1 74.4Q1009.4 75 1010 75.5Q1010.6 76 1011.2 76.5Q1011.8 77.1 1012.1 77.7Q1012.5 78.4 1012.3 79.2Q1012.2 80 1011.7 80.7Q1011.1 81.4 1010.3 81.9Q1009.5 82.3 1008.6 82.3ZM1015.7 82.2Q1015.3 82.2 1015.2 82.2Q1015 82.1 1015 82.1Q1015 81.9 1015.2 81.3Q1015.3 80.7 1015.4 80L1018.2 65.3Q1018.4 64.3 1018 64.1Q1017.6 63.8 1016.4 64.4Q1016.2 64.5 1016.2 64.3Q1016.1 64.2 1016.2 64.1L1019.7 62.4Q1019.8 62.4 1019.9 62.5Q1020 62.6 1020 62.6L1016.5 81.8Q1016.5 82.2 1015.7 82.2ZM1022.5 82.2Q1021.8 82.2 1021.7 81.6Q1021.5 81.1 1021.8 79.6L1022.5 75.3Q1022.8 73.8 1022.6 73Q1022.3 72.3 1021.5 72.3Q1020.7 72.3 1019.7 73.4Q1018.8 74.5 1017.9 76.6Q1017.1 78.8 1016.5 81.8L1016.2 81.8Q1016.8 78.6 1017.7 76.2Q1018.6 73.9 1019.9 72.6Q1021.1 71.2 1022.4 71.2Q1023.6 71.2 1024 72.1Q1024.3 72.9 1024 74.8L1023.1 79.6Q1023 80.4 1023.1 80.8Q1023.2 81.2 1023.6 81.2Q1023.9 81.2 1024.3 80.8Q1024.8 80.5 1025.3 79.9Q1025.5 79.8 1025.6 79.9Q1025.7 80 1025.6 80.1Q1024.7 81.1 1024 81.7Q1023.2 82.2 1022.5 82.2ZM1028.9 82.2Q1028.3 82.2 1028.1 81.7Q1027.9 81.1 1028.2 79.6L1029.3 74Q1029.6 72.4 1028.8 72.4Q1028.5 72.4 1028 72.7Q1027.5 73 1026.9 73.6Q1026.9 73.7 1026.7 73.6Q1026.6 73.5 1026.7 73.4Q1027.6 72.4 1028.4 71.8Q1029.2 71.3 1029.9 71.3Q1030.5 71.3 1030.7 71.9Q1030.9 72.5 1030.6 73.9L1029.5 79.6Q1029.4 80.4 1029.5 80.8Q1029.6 81.2 1030 81.2Q1030.3 81.2 1030.7 80.9Q1031.2 80.5 1031.8 80Q1031.9 79.9 1032 80Q1032.1 80.1 1032 80.2Q1031.1 81.2 1030.4 81.7Q1029.6 82.2 1028.9 82.2ZM1030.6 68.1Q1030.1 68.1 1029.8 67.9Q1029.5 67.6 1029.5 67Q1029.5 66.5 1029.8 66.2Q1030.1 65.9 1030.6 65.9Q1031.2 65.9 1031.5 66.2Q1031.8 66.5 1031.8 67Q1031.8 68.1 1030.6 68.1ZM1031.1 89.4Q1031 89.5 1031 89.3Q1031 89.1 1031.1 89.1Q1031.7 89 1032 88.8Q1032.3 88.7 1032.4 88.3Q1032.6 87.8 1032.7 87L1035.5 71.6Q1035.5 71.5 1035.7 71.3Q1035.8 71.2 1036.1 70.9Q1036.4 70.7 1036.6 70.3Q1036.8 70 1036.9 69.6Q1037 69.5 1037.1 69.5Q1037.2 69.6 1037.2 69.7L1034.1 86.8Q1034 87.9 1034.3 88.2Q1034.6 88.6 1035.7 88.4Q1035.8 88.4 1035.9 88.5Q1035.9 88.7 1035.8 88.7ZM1036.6 82Q1035.6 82 1035.1 81.9Q1034.6 81.9 1034.2 81.8L1034.5 80.4Q1035 80.7 1035.7 81Q1036.3 81.3 1037.3 81.3Q1038.5 81.3 1039.4 80.6Q1040.2 79.9 1040.7 78.7Q1041.2 77.5 1041.4 76.1Q1041.5 75.1 1041.4 74.3Q1041.3 73.4 1040.8 72.9Q1040.3 72.4 1039.2 72.4Q1038 72.4 1036.7 73.1Q1035.5 73.8 1033.8 75.1Q1033.7 75.1 1033.6 75Q1033.5 74.9 1033.6 74.8Q1035.2 73.4 1037 72.4Q1038.7 71.4 1040.4 71.4Q1041.9 71.4 1042.5 72.4Q1043.2 73.3 1042.9 75.2Q1042.7 76.5 1042.1 77.8Q1041.5 79 1040.6 80Q1039.7 80.9 1038.7 81.5Q1037.6 82 1036.6 82ZM1046.4 82.3Q1045.4 82.3 1044.6 81.8Q1043.8 81.3 1043.9 80.6Q1044 80.2 1044.2 80.1Q1044.5 79.9 1044.8 79.9Q1045.1 79.9 1045.3 80.2Q1045.5 80.4 1045.6 80.8Q1045.8 81.1 1046.2 81.4Q1046.5 81.7 1047.2 81.7Q1047.9 81.7 1048.4 81.3Q1048.8 80.9 1048.9 80.1Q1049 79.2 1048.7 78.6Q1048.3 78 1047.7 77.5Q1047.1 77 1046.5 76.5Q1045.9 76 1045.6 75.4Q1045.3 74.8 1045.4 74Q1045.6 73.1 1046.1 72.5Q1046.7 71.9 1047.5 71.6Q1048.2 71.3 1049 71.3Q1050 71.3 1050.6 71.7Q1051.3 72.1 1051.2 72.7Q1051.1 73 1050.9 73.2Q1050.6 73.4 1050.4 73.4Q1050 73.4 1049.8 73.2Q1049.6 73 1049.4 72.7Q1049.2 72.4 1048.9 72.1Q1048.6 71.9 1048.1 71.9Q1047.5 71.9 1047.1 72.2Q1046.7 72.4 1046.6 73Q1046.5 73.8 1046.9 74.4Q1047.2 75 1047.8 75.5Q1048.4 76 1049 76.5Q1049.6 77.1 1050 77.7Q1050.3 78.4 1050.2 79.2Q1050 80 1049.5 80.7Q1049 81.4 1048.2 81.9Q1047.4 82.3 1046.4 82.3ZM1052.1 86.8Q1052 86.9 1051.9 86.8Q1051.8 86.6 1051.9 86.6Q1052.8 85.7 1053.3 84.8Q1053.9 83.9 1054 83Q1054.1 82.2 1054 81.9Q1053.9 81.6 1053.7 81.5L1054.5 81.2Q1054.5 81.7 1054.2 82Q1054 82.2 1053.5 82.2Q1053 82.2 1052.7 81.9Q1052.5 81.6 1052.5 81.1Q1052.5 80.6 1052.8 80.4Q1053.2 80.1 1053.7 80.1Q1054.5 80.1 1055 80.7Q1055.4 81.3 1055.2 82.5Q1054.9 83.8 1054.1 84.8Q1053.3 85.9 1052.1 86.8ZM1067.4 82.3Q1066.9 82.3 1066.5 82.1Q1066 81.9 1065.8 81.4Q1065.5 80.9 1065.7 80L1066.8 73.7Q1067 72.7 1066.9 72.5Q1066.7 72.3 1065.9 72.3Q1065.8 72.3 1065.8 72.1Q1065.9 71.9 1066 71.9Q1066.9 71.9 1067.6 71.3Q1068.2 70.7 1068.5 69.8Q1068.5 69.8 1068.7 69.8Q1069 69.8 1068.9 69.8L1067.2 79.2Q1067 80.3 1067.3 80.8Q1067.7 81.3 1068.5 81.3Q1069.3 81.3 1069.9 81Q1070.5 80.6 1071.1 80.1Q1071.1 80.1 1071.3 80.2Q1071.4 80.3 1071.3 80.3Q1070.1 81.4 1069.2 81.9Q1068.2 82.3 1067.4 82.3ZM1071.3 72.8Q1071.3 72.8 1070.7 72.7Q1070.2 72.6 1069.5 72.6Q1068.8 72.5 1068.1 72.5L1068.1 71.8Q1068.8 71.8 1069.7 71.8Q1070.5 71.7 1071.1 71.7Q1071.8 71.7 1072 71.7Q1072.1 71.7 1072.2 71.7Q1072.2 71.8 1072.2 71.9Q1072.2 72.1 1071.9 72.4Q1071.6 72.8 1071.3 72.8ZM1073.8 82.2Q1073.4 82.2 1073.3 82.2Q1073.2 82.1 1073.2 82.1Q1073.2 81.9 1073.3 81.3Q1073.5 80.7 1073.6 80L1076.3 65.3Q1076.5 64.3 1076.1 64.1Q1075.7 63.8 1074.5 64.4Q1074.4 64.5 1074.3 64.3Q1074.3 64.2 1074.4 64.1L1077.9 62.4Q1078 62.4 1078.1 62.5Q1078.2 62.6 1078.2 62.6L1074.7 81.8Q1074.6 82.2 1073.8 82.2ZM1080.7 82.2Q1080 82.2 1079.8 81.6Q1079.6 81.1 1079.9 79.6L1080.7 75.3Q1081 73.8 1080.7 73Q1080.5 72.3 1079.7 72.3Q1078.8 72.3 1077.9 73.4Q1076.9 74.5 1076.1 76.6Q1075.2 78.8 1074.7 81.8L1074.4 81.8Q1074.9 78.6 1075.9 76.2Q1076.8 73.9 1078 72.6Q1079.3 71.2 1080.6 71.2Q1081.7 71.2 1082.1 72.1Q1082.5 72.9 1082.2 74.8L1081.3 79.6Q1081.1 80.4 1081.2 80.8Q1081.4 81.2 1081.7 81.2Q1082 81.2 1082.5 80.8Q1082.9 80.5 1083.5 79.9Q1083.6 79.8 1083.7 79.9Q1083.8 80 1083.7 80.1Q1082.9 81.1 1082.1 81.7Q1081.4 82.2 1080.7 82.2ZM1088.3 82.3Q1086.9 82.3 1086.1 81.6Q1085.3 80.8 1085 79.6Q1084.7 78.4 1085 77Q1085.2 76 1085.7 75Q1086.3 73.9 1087.1 73.1Q1088 72.3 1089 71.7Q1090 71.2 1091.2 71.2Q1092.2 71.2 1092.6 71.6Q1093.1 72 1093 72.7Q1092.9 73.3 1092.3 73.9Q1091.6 74.5 1090.7 75Q1089.7 75.5 1088.5 75.8Q1087.3 76.2 1086 76.3L1086 76Q1088.1 75.7 1089.5 75Q1091 74.3 1091.2 73.3Q1091.4 72.5 1091 72.2Q1090.5 72 1090 72Q1089.1 72 1088.4 72.5Q1087.7 73.1 1087.3 74Q1086.9 75 1086.7 76.1Q1086.4 77.6 1086.6 78.8Q1086.8 80 1087.5 80.7Q1088.2 81.4 1089.4 81.4Q1090 81.4 1090.7 81.2Q1091.4 81 1092.1 80.5Q1092.2 80.5 1092.3 80.6Q1092.4 80.7 1092.3 80.8Q1091.3 81.6 1090.3 82Q1089.3 82.3 1088.3 82.3ZM1102.5 82.2Q1101.8 82.2 1101.6 81.6Q1101.5 81.1 1101.7 79.6L1102.5 75.3Q1103.1 72.3 1101.5 72.3Q1100.6 72.3 1099.7 73.4Q1098.8 74.5 1097.9 76.6Q1097.1 78.8 1096.5 81.8L1096.2 81.8Q1096.7 78.6 1097.7 76.2Q1098.6 73.9 1099.9 72.6Q1101.1 71.2 1102.4 71.2Q1103.6 71.2 1104 72.1Q1104.3 72.9 1104 74.8L1103.1 79.6Q1102.9 80.4 1103.1 80.8Q1103.2 81.2 1103.5 81.2Q1103.8 81.2 1104.3 80.8Q1104.8 80.5 1105.3 79.9Q1105.4 79.8 1105.5 79.9Q1105.6 80 1105.5 80.1Q1104.7 81.1 1103.9 81.7Q1103.2 82.2 1102.5 82.2ZM1095.6 82.2Q1095.2 82.2 1095.1 82.2Q1095 82.1 1095 82.1Q1095 81.9 1095.2 81.3Q1095.3 80.7 1095.4 80L1096.5 74Q1096.8 72.4 1096.1 72.4Q1095.8 72.4 1095.3 72.7Q1094.8 73 1094.2 73.6Q1094.1 73.7 1094 73.6Q1093.9 73.5 1094 73.4Q1094.9 72.4 1095.7 71.8Q1096.4 71.3 1097.1 71.3Q1097.8 71.3 1098 71.9Q1098.1 72.5 1097.9 73.9L1096.5 81.8Q1096.4 82.2 1095.6 82.2ZM1115.6 82.3Q1115 82.3 1114.6 82.1Q1114.1 81.9 1113.9 81.4Q1113.6 80.9 1113.8 80L1115 73.7Q1115.1 72.7 1115 72.5Q1114.9 72.3 1114 72.3Q1113.9 72.3 1114 72.1Q1114 71.9 1114.1 71.9Q1115 71.9 1115.7 71.3Q1116.4 70.7 1116.6 69.8Q1116.6 69.8 1116.8 69.8Q1117.1 69.8 1117 69.8L1115.4 79.2Q1115.1 80.3 1115.5 80.8Q1115.8 81.3 1116.6 81.3Q1117.4 81.3 1118 81Q1118.6 80.6 1119.2 80.1Q1119.3 80.1 1119.4 80.2Q1119.5 80.3 1119.4 80.3Q1118.2 81.4 1117.3 81.9Q1116.4 82.3 1115.6 82.3ZM1119.4 72.8Q1119.4 72.8 1118.8 72.7Q1118.3 72.6 1117.6 72.6Q1116.9 72.5 1116.2 72.5L1116.3 71.8Q1117 71.8 1117.8 71.8Q1118.6 71.7 1119.3 71.7Q1119.9 71.7 1120.1 71.7Q1120.3 71.7 1120.3 71.7Q1120.3 71.8 1120.3 71.9Q1120.3 72.1 1120 72.4Q1119.7 72.8 1119.4 72.8ZM1125.2 82.4Q1124.3 82.4 1123.7 81.8Q1123.2 81.2 1123 80.4Q1122.8 79.5 1122.9 78.5Q1123.1 77.3 1123.7 76Q1124.3 74.7 1124.8 73.6Q1125 73.3 1124.9 73.1Q1124.8 72.9 1124.5 72.9H1123.2Q1122.5 72.9 1122.1 73Q1121.8 73.1 1121.5 73.4Q1121.3 73.7 1121.1 74.4Q1121.1 74.5 1120.9 74.4Q1120.8 74.4 1120.8 74.2Q1121.2 73.1 1121.5 72.5Q1121.8 71.9 1122.3 71.7Q1122.7 71.6 1123.5 71.6H1125.9Q1126.2 71.6 1126.2 71.6Q1126.2 71.7 1126.1 71.9Q1125.5 73.3 1125 74.9Q1124.5 76.5 1124.3 77.8Q1124.1 79.3 1124.6 80.2Q1125.1 81.1 1126 81.1Q1126.7 81.1 1127.4 80.7Q1128.1 80.2 1128.7 79.4Q1129.3 78.6 1129.8 77.5Q1130.3 76.4 1130.5 75.1Q1130.6 74.2 1130.4 73.6Q1130.2 73.1 1129.8 73.1Q1129.4 73.1 1129.1 73.7Q1128.9 74.3 1128.8 75Q1128.6 76.2 1128.7 77.3Q1128.8 78.4 1129.2 79.2Q1129.6 80.1 1130.2 80.6Q1130.8 81.1 1131.6 81.1Q1132.2 81.1 1132.9 80.6Q1133.7 80 1134.3 79Q1134.8 78.1 1135 76.7Q1135.2 75.6 1135.1 74.9Q1135 74.2 1134.8 73.8Q1134.6 73.4 1134.3 73.1Q1134.1 72.9 1134 72.7Q1133.8 72.5 1133.8 72.2Q1133.8 71.7 1134.2 71.5Q1134.6 71.3 1134.9 71.3Q1135.5 71.3 1135.8 71.9Q1136 72.5 1136.1 73.5Q1136.1 74.4 1136 75.4Q1135.7 77 1135.2 78.3Q1134.6 79.5 1133.9 80.5Q1133.1 81.4 1132.3 81.9Q1131.5 82.4 1130.8 82.4Q1130 82.4 1129.4 81.8Q1128.9 81.2 1128.5 80.3Q1128.2 79.3 1128.1 78.1Q1128 76.9 1128.3 75.6Q1128.5 74.4 1128.8 73.5Q1129.1 72.5 1129.5 72Q1129.9 71.4 1130.4 71.4Q1131 71.4 1131.2 72.3Q1131.5 73.1 1131.2 74.3Q1130.9 76.3 1130.3 77.8Q1129.6 79.2 1128.7 80.3Q1127.9 81.3 1127 81.8Q1126.1 82.4 1125.2 82.4ZM1141.1 82.4Q1139.8 82.4 1139 81.6Q1138.1 80.9 1137.8 79.6Q1137.5 78.3 1137.8 76.8Q1138.1 75.2 1139 73.9Q1139.8 72.7 1141 72Q1142.2 71.2 1143.5 71.2Q1144.9 71.2 1145.8 72Q1146.6 72.8 1146.9 74Q1147.2 75.3 1146.8 76.8Q1146.5 78.5 1145.6 79.8Q1144.7 81 1143.5 81.7Q1142.3 82.4 1141.1 82.4ZM1142 81.7Q1143.1 81.7 1144.1 80.7Q1145 79.7 1145.3 78Q1145.5 77 1145.5 75.9Q1145.4 74.8 1145.1 73.9Q1144.8 73 1144.2 72.4Q1143.6 71.9 1142.7 71.9Q1141.6 71.9 1140.6 72.9Q1139.7 73.9 1139.3 75.6Q1139.1 76.7 1139.2 77.7Q1139.3 78.8 1139.6 79.7Q1140 80.6 1140.6 81.1Q1141.2 81.7 1142 81.7ZM1156.7 82.3Q1155.7 82.3 1154.9 81.8Q1154.2 81.3 1154.3 80.6Q1154.4 80.2 1154.6 80.1Q1154.8 79.9 1155.1 79.9Q1155.5 79.9 1155.6 80.2Q1155.8 80.4 1156 80.8Q1156.2 81.1 1156.5 81.4Q1156.9 81.7 1157.5 81.7Q1158.3 81.7 1158.7 81.3Q1159.2 80.9 1159.3 80.1Q1159.4 79.2 1159 78.6Q1158.7 78 1158.1 77.5Q1157.5 77 1156.9 76.5Q1156.3 76 1156 75.4Q1155.6 74.8 1155.8 74Q1155.9 73.1 1156.5 72.5Q1157.1 71.9 1157.8 71.6Q1158.6 71.3 1159.4 71.3Q1160.3 71.3 1161 71.7Q1161.6 72.1 1161.6 72.7Q1161.5 73 1161.2 73.2Q1161 73.4 1160.7 73.4Q1160.3 73.4 1160.1 73.2Q1159.9 73 1159.7 72.7Q1159.5 72.4 1159.2 72.1Q1158.9 71.9 1158.4 71.9Q1157.9 71.9 1157.5 72.2Q1157.1 72.4 1157 73Q1156.9 73.8 1157.2 74.4Q1157.6 75 1158.2 75.5Q1158.8 76 1159.4 76.5Q1160 77.1 1160.3 77.7Q1160.6 78.4 1160.5 79.2Q1160.4 80 1159.8 80.7Q1159.3 81.4 1158.5 81.9Q1157.7 82.3 1156.7 82.3ZM1165.4 82.3Q1164.9 82.3 1164.4 82.1Q1164 81.9 1163.7 81.4Q1163.5 80.9 1163.7 80L1164.8 73.7Q1165 72.7 1164.9 72.5Q1164.7 72.3 1163.9 72.3Q1163.8 72.3 1163.8 72.1Q1163.9 71.9 1163.9 71.9Q1164.9 71.9 1165.6 71.3Q1166.2 70.7 1166.4 69.8Q1166.5 69.8 1166.7 69.8Q1166.9 69.8 1166.9 69.8L1165.2 79.2Q1165 80.3 1165.3 80.8Q1165.6 81.3 1166.5 81.3Q1167.3 81.3 1167.9 81Q1168.5 80.6 1169.1 80.1Q1169.1 80.1 1169.2 80.2Q1169.4 80.3 1169.3 80.3Q1168.1 81.4 1167.1 81.9Q1166.2 82.3 1165.4 82.3ZM1169.3 72.8Q1169.3 72.8 1168.7 72.7Q1168.2 72.6 1167.5 72.6Q1166.7 72.5 1166.1 72.5L1166.1 71.8Q1166.8 71.8 1167.6 71.8Q1168.4 71.7 1169.1 71.7Q1169.8 71.7 1170 71.7Q1170.1 71.7 1170.2 71.7Q1170.2 71.8 1170.2 71.9Q1170.1 72.1 1169.9 72.4Q1169.6 72.8 1169.3 72.8ZM1172.3 82.4Q1171.4 82.4 1171 81.7Q1170.5 81.1 1170.7 79.5Q1170.9 78.1 1171.6 76.6Q1172.3 75.1 1173.4 73.9Q1174.4 72.7 1175.6 72Q1176.7 71.2 1177.8 71.2Q1178.3 71.2 1178.8 71.4Q1179.2 71.6 1179.6 72Q1179.9 72.4 1180 73.1L1178.8 72.4Q1179.2 72.3 1179.6 71.9Q1180.1 71.5 1180.2 71Q1180.3 70.9 1180.4 71Q1180.6 71 1180.5 71L1179 79.6Q1178.7 81.2 1179.4 81.2Q1179.7 81.2 1180.2 80.8Q1180.6 80.5 1181.2 79.9Q1181.2 79.8 1181.4 79.9Q1181.5 80.1 1181.4 80.1Q1180.5 81.1 1179.8 81.7Q1179.1 82.2 1178.4 82.2Q1177.7 82.2 1177.5 81.6Q1177.3 81.1 1177.6 79.6L1178.2 75.8L1178.7 75.4Q1177.9 77.4 1176.8 79Q1175.7 80.6 1174.6 81.5Q1173.4 82.4 1172.3 82.4ZM1173.3 81Q1174 81 1174.8 80.4Q1175.7 79.8 1176.4 78.9Q1177.1 77.9 1177.7 76.8Q1178.2 75.6 1178.5 74.5Q1178.7 73.5 1178.3 72.8Q1177.9 72.2 1176.9 72.2Q1175.9 72.2 1175 73Q1174 73.8 1173.2 75.2Q1172.5 76.6 1172.2 78.3Q1172 79.7 1172.3 80.4Q1172.5 81 1173.3 81ZM1184.8 81.8 1184.6 81.8Q1184.8 80.6 1185.2 79.2Q1185.6 77.7 1186.1 76.4Q1186.6 75 1187.2 73.8Q1187.8 72.7 1188.4 72Q1189 71.3 1189.6 71.3Q1190 71.3 1190.4 71.5Q1190.7 71.7 1191 72.1Q1191.2 72.4 1191.1 72.8Q1191 73.1 1190.8 73.3Q1190.6 73.5 1190.2 73.5Q1189.8 73.5 1189.6 73.3Q1189.4 73.1 1189.3 72.9Q1189.1 72.6 1188.9 72.6Q1188.5 72.6 1188 73.3Q1187.6 73.9 1187.1 74.9Q1186.6 76 1186.1 77.2Q1185.7 78.4 1185.3 79.7Q1185 80.9 1184.8 81.8ZM1184 82.2Q1183.6 82.2 1183.5 82.2Q1183.4 82.1 1183.4 82.1Q1183.4 81.9 1183.5 81.3Q1183.7 80.6 1183.8 80L1184.7 75Q1184.9 73.9 1184.8 73.4Q1184.8 72.8 1184.6 72.6Q1184.4 72.4 1184.2 72.4Q1183.8 72.4 1183.4 72.7Q1182.9 73 1182.5 73.4Q1182.5 73.5 1182.4 73.4Q1182.3 73.3 1182.3 73.2Q1183.1 72.3 1183.8 71.8Q1184.5 71.3 1185.2 71.3Q1185.7 71.3 1186 71.6Q1186.3 72 1186.3 72.7Q1186.3 73.5 1186 75L1184.8 81.8Q1184.8 82.2 1184 82.2ZM1194.3 82.3Q1193.8 82.3 1193.3 82.1Q1192.8 81.9 1192.6 81.4Q1192.4 80.9 1192.5 80L1193.7 73.7Q1193.9 72.7 1193.7 72.5Q1193.6 72.3 1192.8 72.3Q1192.7 72.3 1192.7 72.1Q1192.7 71.9 1192.8 71.9Q1193.7 71.9 1194.4 71.3Q1195.1 70.7 1195.3 69.8Q1195.3 69.8 1195.6 69.8Q1195.8 69.8 1195.8 69.8L1194.1 79.2Q1193.9 80.3 1194.2 80.8Q1194.5 81.3 1195.3 81.3Q1196.1 81.3 1196.7 81Q1197.4 80.6 1197.9 80.1Q1198 80.1 1198.1 80.2Q1198.2 80.3 1198.1 80.3Q1196.9 81.4 1196 81.9Q1195.1 82.3 1194.3 82.3ZM1198.2 72.8Q1198.1 72.8 1197.6 72.7Q1197 72.6 1196.3 72.6Q1195.6 72.5 1194.9 72.5L1195 71.8Q1195.7 71.8 1196.5 71.8Q1197.3 71.7 1198 71.7Q1198.7 71.7 1198.8 71.7Q1199 71.7 1199 71.7Q1199.1 71.8 1199 71.9Q1199 72.1 1198.7 72.4Q1198.4 72.8 1198.2 72.8ZM1202.5 82.4Q1201.4 82.4 1201 81.5Q1200.6 80.7 1201 78.8L1201.9 74Q1202.1 73.1 1202 72.8Q1201.8 72.4 1201.5 72.4Q1201.2 72.4 1200.7 72.8Q1200.3 73.1 1199.7 73.7Q1199.6 73.8 1199.5 73.7Q1199.4 73.5 1199.5 73.4Q1200.4 72.4 1201.1 71.9Q1201.8 71.3 1202.5 71.3Q1203.2 71.3 1203.4 71.9Q1203.6 72.5 1203.3 74L1202.4 78.3Q1202.1 79.8 1202.4 80.6Q1202.6 81.3 1203.4 81.3Q1204.3 81.3 1205.2 80.2Q1206.2 79.1 1207 77Q1207.9 74.8 1208.4 71.8L1208.8 71.8Q1208.2 75 1207.3 77.3Q1206.3 79.7 1205.1 81Q1203.9 82.4 1202.5 82.4ZM1207.8 82.2Q1207.1 82.2 1207 81.7Q1206.8 81.1 1207.1 79.7L1208.4 71.8Q1208.5 71.4 1209.3 71.4Q1209.7 71.4 1209.8 71.4Q1209.9 71.5 1209.9 71.5Q1209.9 71.6 1209.8 72.3Q1209.7 72.9 1209.5 73.6L1208.4 79.6Q1208.2 81.2 1208.9 81.2Q1209.2 81.2 1209.7 80.9Q1210.2 80.5 1210.8 79.9Q1210.8 79.8 1210.9 80Q1211.1 80.1 1211 80.2Q1210 81.2 1209.3 81.7Q1208.5 82.2 1207.8 82.2ZM1210 89.4Q1209.9 89.5 1209.9 89.3Q1209.8 89.1 1209.9 89.1Q1210.5 89 1210.8 88.8Q1211.1 88.7 1211.3 88.3Q1211.5 87.8 1211.6 87L1214.3 71.6Q1214.3 71.5 1214.5 71.3Q1214.7 71.2 1215 70.9Q1215.3 70.7 1215.5 70.3Q1215.7 70 1215.8 69.6Q1215.8 69.5 1216 69.5Q1216.1 69.6 1216.1 69.7L1213 86.8Q1212.8 87.9 1213.1 88.2Q1213.5 88.6 1214.6 88.4Q1214.7 88.4 1214.7 88.5Q1214.8 88.7 1214.6 88.7ZM1215.5 82Q1214.5 82 1214 81.9Q1213.5 81.9 1213.1 81.8L1213.3 80.4Q1213.9 80.7 1214.5 81Q1215.2 81.3 1216.2 81.3Q1217.4 81.3 1218.2 80.6Q1219.1 79.9 1219.6 78.7Q1220.1 77.5 1220.3 76.1Q1220.4 75.1 1220.3 74.3Q1220.2 73.4 1219.7 72.9Q1219.2 72.4 1218.1 72.4Q1216.9 72.4 1215.6 73.1Q1214.3 73.8 1212.7 75.1Q1212.6 75.1 1212.5 75Q1212.4 74.9 1212.5 74.8Q1214.1 73.4 1215.8 72.4Q1217.6 71.4 1219.2 71.4Q1220.7 71.4 1221.4 72.4Q1222.1 73.3 1221.8 75.2Q1221.6 76.5 1221 77.8Q1220.4 79 1219.5 80Q1218.6 80.9 1217.6 81.5Q1216.5 82 1215.5 82ZM1225.3 82.3Q1224.2 82.3 1223.5 81.8Q1222.7 81.3 1222.8 80.6Q1222.9 80.2 1223.1 80.1Q1223.4 79.9 1223.6 79.9Q1224 79.9 1224.2 80.2Q1224.3 80.4 1224.5 80.8Q1224.7 81.1 1225.1 81.4Q1225.4 81.7 1226.1 81.7Q1226.8 81.7 1227.2 81.3Q1227.7 80.9 1227.8 80.1Q1227.9 79.2 1227.5 78.6Q1227.2 78 1226.6 77.5Q1226 77 1225.4 76.5Q1224.8 76 1224.5 75.4Q1224.1 74.8 1224.3 74Q1224.5 73.1 1225 72.5Q1225.6 71.9 1226.3 71.6Q1227.1 71.3 1227.9 71.3Q1228.9 71.3 1229.5 71.7Q1230.2 72.1 1230.1 72.7Q1230 73 1229.7 73.2Q1229.5 73.4 1229.2 73.4Q1228.9 73.4 1228.7 73.2Q1228.4 73 1228.2 72.7Q1228 72.4 1227.8 72.1Q1227.5 71.9 1226.9 71.9Q1226.4 71.9 1226 72.2Q1225.6 72.4 1225.5 73Q1225.4 73.8 1225.8 74.4Q1226.1 75 1226.7 75.5Q1227.3 76 1227.9 76.5Q1228.5 77.1 1228.8 77.7Q1229.2 78.4 1229 79.2Q1228.9 80 1228.4 80.7Q1227.8 81.4 1227 81.9Q1226.2 82.3 1225.3 82.3ZM1232.5 82.3Q1232 82.3 1231.7 82Q1231.4 81.7 1231.4 81.1Q1231.4 80.6 1231.7 80.3Q1232 80 1232.5 80Q1233.1 80 1233.4 80.3Q1233.7 80.6 1233.7 81.1Q1233.7 82.3 1232.5 82.3Z" fill="#57534D" ><title>Two stable internships, then two startups.</title></path><path d="M849.7 115.7 853.9 104.9H854.8L850.6 115.7ZM857.6 115.7 861.8 104.9H862.7L858.5 115.7ZM884.4 106.5V114H883.4V106.5H880.6V105.6H887.2V106.5ZM889.4 105.1H890.4V108.8H890.4Q890.5 108.6 890.7 108.4Q890.8 108.2 891 108Q891.2 107.9 891.5 107.8Q891.8 107.7 892.2 107.7Q893.2 107.7 893.7 108.3Q894.3 108.9 894.3 110V114H893.4V110.2Q893.4 109.3 893 108.9Q892.6 108.5 891.9 108.5Q891.6 108.5 891.3 108.6Q891.1 108.7 890.9 108.8Q890.6 108.9 890.5 109.2Q890.4 109.4 890.4 109.7V114H889.4ZM899.9 114.1Q899.2 114.1 898.7 113.9Q898.1 113.7 897.7 113.3Q897.4 112.8 897.2 112.2Q897 111.6 897 110.9Q897 110.2 897.2 109.6Q897.4 109 897.8 108.5Q898.1 108.1 898.6 107.9Q899.2 107.7 899.8 107.7Q900.4 107.7 900.9 107.9Q901.5 108.1 901.8 108.5Q902.2 108.9 902.4 109.5Q902.6 110 902.6 110.7V111.1H898V111.4Q898 111.8 898.1 112.2Q898.2 112.5 898.5 112.8Q898.7 113 899.1 113.2Q899.4 113.3 899.9 113.3Q900.5 113.3 900.9 113Q901.4 112.7 901.6 112.2L902.4 112.7Q902.1 113.3 901.4 113.7Q900.8 114.1 899.9 114.1ZM899.8 108.5Q899.4 108.5 899.1 108.6Q898.7 108.7 898.5 109Q898.2 109.2 898.1 109.6Q898 109.9 898 110.3V110.4H901.5V110.3Q901.5 109.9 901.4 109.5Q901.3 109.2 901 109Q900.8 108.7 900.5 108.6Q900.2 108.5 899.8 108.5ZM905 113.2H906.8V108.6H905V107.8H907.8V109.4H907.8Q908 108.6 908.6 108.2Q909.1 107.8 909.9 107.8H910.8V108.8H909.6Q908.8 108.8 908.3 109.2Q907.8 109.7 907.8 110.5V113.2H910.2V114H905ZM915.7 114.1Q915 114.1 914.5 113.9Q914 113.7 913.6 113.3Q913.2 112.8 913 112.2Q912.8 111.6 912.8 110.9Q912.8 110.2 913 109.6Q913.2 109 913.6 108.5Q914 108.1 914.5 107.9Q915 107.7 915.6 107.7Q916.3 107.7 916.8 107.9Q917.3 108.1 917.7 108.5Q918 108.9 918.2 109.5Q918.4 110 918.4 110.7V111.1H913.8V111.4Q913.8 111.8 913.9 112.2Q914.1 112.5 914.3 112.8Q914.6 113 914.9 113.2Q915.3 113.3 915.7 113.3Q916.3 113.3 916.8 113Q917.2 112.7 917.5 112.2L918.2 112.7Q917.9 113.3 917.3 113.7Q916.6 114.1 915.7 114.1ZM915.6 108.5Q915.3 108.5 914.9 108.6Q914.6 108.7 914.3 109Q914.1 109.2 913.9 109.6Q913.8 109.9 913.8 110.3V110.4H917.4V110.3Q917.4 109.9 917.2 109.5Q917.1 109.2 916.9 109Q916.7 108.7 916.3 108.6Q916 108.5 915.6 108.5ZM928.2 107.8H929.1L929.8 113.2H929.9L930.9 107.8H932L933 113.2H933.1L933.9 107.8H934.7L933.7 114H932.5L931.5 108.8H931.4L930.4 114H929.1ZM941.7 114Q941.1 114 940.9 113.7Q940.7 113.4 940.6 113H940.5Q940.3 113.5 939.9 113.8Q939.4 114.1 938.7 114.1Q937.7 114.1 937.1 113.6Q936.6 113.1 936.6 112.3Q936.6 111.4 937.2 110.9Q937.8 110.5 939.2 110.5H940.5V109.8Q940.5 109.2 940.2 108.8Q939.8 108.5 939.1 108.5Q938.4 108.5 938 108.7Q937.6 109 937.4 109.4L936.8 108.9Q936.9 108.7 937.1 108.4Q937.3 108.2 937.6 108Q937.9 107.9 938.3 107.8Q938.7 107.7 939.1 107.7Q940.2 107.7 940.9 108.2Q941.5 108.8 941.5 109.8V113.2H942.4V114ZM938.8 113.3Q939.2 113.3 939.5 113.2Q939.8 113.2 940.1 113Q940.3 112.9 940.4 112.7Q940.5 112.4 940.5 112.2V111.2H939.2Q938.4 111.2 938 111.4Q937.6 111.7 937.6 112.1V112.4Q937.6 112.8 937.9 113.1Q938.2 113.3 938.8 113.3ZM947.4 114.1Q946.4 114.1 945.7 113.8Q945 113.5 944.5 112.9L945.1 112.4Q945.6 112.8 946.1 113.1Q946.6 113.3 947.4 113.3Q948.1 113.3 948.6 113.1Q949 112.8 949 112.3Q949 112 948.9 111.9Q948.8 111.7 948.7 111.6Q948.5 111.5 948.3 111.5Q948.1 111.4 947.9 111.4L947 111.2Q946.6 111.2 946.3 111.1Q945.9 111 945.6 110.8Q945.3 110.6 945 110.3Q944.8 110 944.8 109.5Q944.8 109 945 108.7Q945.2 108.4 945.5 108.1Q945.9 107.9 946.3 107.8Q946.8 107.7 947.3 107.7Q948.2 107.7 948.8 107.9Q949.4 108.2 949.8 108.7L949.2 109.2Q949.1 109.1 949 109Q948.8 108.8 948.6 108.7Q948.3 108.6 948 108.5Q947.7 108.5 947.3 108.5Q946.6 108.5 946.2 108.7Q945.8 109 945.8 109.5Q945.8 109.7 945.9 109.9Q946 110 946.1 110.1Q946.3 110.2 946.5 110.3Q946.7 110.3 946.9 110.4L947.8 110.5Q948.2 110.5 948.6 110.6Q948.9 110.7 949.2 110.9Q949.5 111.1 949.8 111.4Q950 111.7 950 112.2Q950 113.1 949.3 113.6Q948.5 114.1 947.4 114.1ZM965.5 114Q964.9 114 964.7 113.7Q964.4 113.4 964.4 113H964.3Q964.1 113.5 963.6 113.8Q963.2 114.1 962.4 114.1Q961.5 114.1 960.9 113.6Q960.3 113.1 960.3 112.3Q960.3 111.4 960.9 110.9Q961.6 110.5 963 110.5H964.3V109.8Q964.3 109.2 963.9 108.8Q963.5 108.5 962.8 108.5Q962.2 108.5 961.8 108.7Q961.4 109 961.2 109.4L960.5 108.9Q960.6 108.7 960.8 108.4Q961 108.2 961.3 108Q961.6 107.9 962 107.8Q962.4 107.7 962.9 107.7Q964 107.7 964.6 108.2Q965.3 108.8 965.3 109.8V113.2H966.1V114ZM962.6 113.3Q963 113.3 963.3 113.2Q963.6 113.2 963.8 113Q964 112.9 964.2 112.7Q964.3 112.4 964.3 112.2V111.2H963Q962.1 111.2 961.7 111.4Q961.3 111.7 961.3 112.1V112.4Q961.3 112.8 961.7 113.1Q962 113.3 962.6 113.3ZM979 114.1Q978.1 114.1 977.4 113.8Q976.7 113.5 976.2 112.9L976.8 112.4Q977.3 112.8 977.8 113.1Q978.3 113.3 979.1 113.3Q979.8 113.3 980.2 113.1Q980.7 112.8 980.7 112.3Q980.7 112 980.6 111.9Q980.5 111.7 980.4 111.6Q980.2 111.5 980 111.5Q979.8 111.4 979.6 111.4L978.6 111.2Q978.3 111.2 977.9 111.1Q977.6 111 977.2 110.8Q976.9 110.6 976.7 110.3Q976.5 110 976.5 109.5Q976.5 109 976.7 108.7Q976.9 108.4 977.2 108.1Q977.6 107.9 978 107.8Q978.5 107.7 979 107.7Q979.8 107.7 980.5 107.9Q981.1 108.2 981.5 108.7L980.9 109.2Q980.8 109.1 980.6 109Q980.5 108.8 980.2 108.7Q980 108.6 979.7 108.5Q979.4 108.5 979 108.5Q978.2 108.5 977.8 108.7Q977.5 109 977.5 109.5Q977.5 109.7 977.5 109.9Q977.6 110 977.8 110.1Q978 110.2 978.1 110.3Q978.3 110.3 978.6 110.4L979.5 110.5Q979.9 110.5 980.2 110.6Q980.6 110.7 980.9 110.9Q981.2 111.1 981.4 111.4Q981.6 111.7 981.6 112.2Q981.6 113.1 980.9 113.6Q980.2 114.1 979 114.1ZM988.3 113H988.3Q988.2 113.2 988.1 113.4Q987.9 113.6 987.7 113.8Q987.5 114 987.2 114Q986.9 114.1 986.5 114.1Q985.6 114.1 985 113.5Q984.4 112.9 984.4 111.8V107.8H985.3V111.6Q985.3 112.5 985.7 112.9Q986.1 113.3 986.8 113.3Q987.1 113.3 987.4 113.2Q987.6 113.1 987.9 113Q988.1 112.9 988.2 112.6Q988.3 112.4 988.3 112.1V107.8H989.3V114H988.3ZM996.3 113H996.3Q995.7 114.1 994.3 114.1Q993.2 114.1 992.6 113.3Q991.9 112.4 991.9 110.9Q991.9 109.4 992.6 108.5Q993.2 107.7 994.3 107.7Q995.7 107.7 996.3 108.8H996.3V105.1H997.3V114H996.3ZM994.7 113.3Q995 113.3 995.3 113.2Q995.6 113.1 995.8 113Q996 112.8 996.2 112.6Q996.3 112.3 996.3 112V109.8Q996.3 109.5 996.2 109.2Q996 109 995.8 108.8Q995.6 108.7 995.3 108.6Q995 108.5 994.7 108.5Q993.9 108.5 993.4 109Q993 109.5 993 110.4V111.4Q993 112.3 993.4 112.8Q993.9 113.3 994.7 113.3ZM1004.2 113H1004.2Q1003.6 114.1 1002.3 114.1Q1001.1 114.1 1000.5 113.3Q999.8 112.4 999.8 110.9Q999.8 109.4 1000.5 108.5Q1001.1 107.7 1002.3 107.7Q1003.6 107.7 1004.2 108.8H1004.2V105.1H1005.2V114H1004.2ZM1002.6 113.3Q1003 113.3 1003.2 113.2Q1003.5 113.1 1003.8 113Q1004 112.8 1004.1 112.6Q1004.2 112.3 1004.2 112V109.8Q1004.2 109.5 1004.1 109.2Q1004 109 1003.8 108.8Q1003.5 108.7 1003.2 108.6Q1003 108.5 1002.6 108.5Q1001.8 108.5 1001.3 109Q1000.9 109.5 1000.9 110.4V111.4Q1000.9 112.3 1001.3 112.8Q1001.8 113.3 1002.6 113.3ZM1010.7 114.1Q1010.1 114.1 1009.5 113.9Q1009 113.7 1008.6 113.3Q1008.3 112.8 1008 112.2Q1007.8 111.6 1007.8 110.9Q1007.8 110.2 1008.1 109.6Q1008.3 109 1008.6 108.5Q1009 108.1 1009.5 107.9Q1010.1 107.7 1010.7 107.7Q1011.3 107.7 1011.8 107.9Q1012.3 108.1 1012.7 108.5Q1013.1 108.9 1013.2 109.5Q1013.4 110 1013.4 110.7V111.1H1008.9V111.4Q1008.9 111.8 1009 112.2Q1009.1 112.5 1009.4 112.8Q1009.6 113 1010 113.2Q1010.3 113.3 1010.7 113.3Q1011.4 113.3 1011.8 113Q1012.3 112.7 1012.5 112.2L1013.2 112.7Q1013 113.3 1012.3 113.7Q1011.7 114.1 1010.7 114.1ZM1010.7 108.5Q1010.3 108.5 1010 108.6Q1009.6 108.7 1009.4 109Q1009.1 109.2 1009 109.6Q1008.9 109.9 1008.9 110.3V110.4H1012.4V110.3Q1012.4 109.9 1012.3 109.5Q1012.2 109.2 1011.9 109Q1011.7 108.7 1011.4 108.6Q1011.1 108.5 1010.7 108.5ZM1016.1 114V107.8H1017.1V108.8H1017.1Q1017.2 108.6 1017.4 108.4Q1017.5 108.2 1017.7 108Q1017.9 107.9 1018.2 107.8Q1018.5 107.7 1018.9 107.7Q1019.9 107.7 1020.5 108.3Q1021.1 108.9 1021.1 110V114H1020.1V110.2Q1020.1 109.3 1019.7 108.9Q1019.4 108.5 1018.6 108.5Q1018.3 108.5 1018.1 108.6Q1017.8 108.7 1017.6 108.8Q1017.4 108.9 1017.2 109.2Q1017.1 109.4 1017.1 109.7V114ZM1035.9 113H1035.9Q1035.3 114.1 1033.9 114.1Q1032.8 114.1 1032.2 113.3Q1031.5 112.4 1031.5 110.9Q1031.5 109.4 1032.2 108.5Q1032.8 107.7 1033.9 107.7Q1035.3 107.7 1035.9 108.8H1035.9V105.1H1036.9V114H1035.9ZM1034.3 113.3Q1034.6 113.3 1034.9 113.2Q1035.2 113.1 1035.4 113Q1035.6 112.8 1035.8 112.6Q1035.9 112.3 1035.9 112V109.8Q1035.9 109.5 1035.8 109.2Q1035.6 109 1035.4 108.8Q1035.2 108.7 1034.9 108.6Q1034.6 108.5 1034.3 108.5Q1033.5 108.5 1033 109Q1032.6 109.5 1032.6 110.4V111.4Q1032.6 112.3 1033 112.8Q1033.5 113.3 1034.3 113.3ZM1039.6 113.2H1041.5V108.6H1039.6V107.8H1042.4V109.4H1042.5Q1042.7 108.6 1043.2 108.2Q1043.7 107.8 1044.6 107.8H1045.4V108.8H1044.3Q1043.4 108.8 1042.9 109.2Q1042.4 109.7 1042.4 110.5V113.2H1044.8V114H1039.6ZM1050.2 114.1Q1049.6 114.1 1049.1 113.9Q1048.5 113.7 1048.2 113.3Q1047.8 112.8 1047.6 112.2Q1047.4 111.6 1047.4 110.9Q1047.4 110.2 1047.6 109.6Q1047.8 109 1048.2 108.5Q1048.5 108.1 1049.1 107.9Q1049.6 107.7 1050.2 107.7Q1050.9 107.7 1051.4 107.9Q1051.9 108.1 1052.3 108.5Q1052.7 109 1052.9 109.6Q1053 110.2 1053 110.9Q1053 111.6 1052.9 112.2Q1052.7 112.8 1052.3 113.3Q1051.9 113.7 1051.4 113.9Q1050.9 114.1 1050.2 114.1ZM1050.2 113.3Q1051 113.3 1051.5 112.8Q1052 112.4 1052 111.3V110.5Q1052 109.5 1051.5 109Q1051 108.5 1050.2 108.5Q1049.4 108.5 1048.9 109Q1048.5 109.5 1048.5 110.5V111.3Q1048.5 112.4 1048.9 112.8Q1049.4 113.3 1050.2 113.3ZM1055.7 107.8H1056.7V108.8H1056.7Q1057.3 107.7 1058.6 107.7Q1059.8 107.7 1060.4 108.5Q1061 109.4 1061 110.9Q1061 112.4 1060.4 113.3Q1059.8 114.1 1058.6 114.1Q1057.3 114.1 1056.7 113H1056.7V116.4H1055.7ZM1058.2 113.3Q1059.1 113.3 1059.5 112.8Q1060 112.3 1060 111.4V110.4Q1060 109.5 1059.5 109Q1059.1 108.5 1058.2 108.5Q1057.9 108.5 1057.6 108.6Q1057.3 108.7 1057.1 108.8Q1056.9 109 1056.8 109.2Q1056.7 109.5 1056.7 109.8V112Q1056.7 112.3 1056.8 112.6Q1056.9 112.8 1057.1 113Q1057.3 113.1 1057.6 113.2Q1057.9 113.3 1058.2 113.3ZM1074.4 106.4Q1074 106.4 1073.8 106.3Q1073.6 106.1 1073.6 105.8V105.6Q1073.6 105.4 1073.8 105.2Q1074 105 1074.4 105Q1074.8 105 1075 105.2Q1075.1 105.4 1075.1 105.6V105.8Q1075.1 106.1 1075 106.3Q1074.8 106.4 1074.4 106.4ZM1071.7 113.2H1073.9V108.6H1071.7V107.8H1074.9V113.2H1077V114H1071.7ZM1079.5 114V107.8H1080.5V108.8H1080.5Q1080.6 108.6 1080.7 108.4Q1080.9 108.2 1081.1 108Q1081.3 107.9 1081.6 107.8Q1081.9 107.7 1082.3 107.7Q1083.2 107.7 1083.8 108.3Q1084.4 108.9 1084.4 110V114H1083.5V110.2Q1083.5 109.3 1083.1 108.9Q1082.7 108.5 1082 108.5Q1081.7 108.5 1081.4 108.6Q1081.2 108.7 1080.9 108.8Q1080.7 108.9 1080.6 109.2Q1080.5 109.4 1080.5 109.7V114ZM1099.8 107.8H1100.7L1097.7 115.4Q1097.5 115.6 1097.4 115.8Q1097.3 116 1097.1 116.1Q1096.9 116.3 1096.7 116.3Q1096.4 116.4 1096.1 116.4H1095.2V115.6H1096.6L1097.3 113.9L1094.8 107.8H1095.8L1096.8 110.4L1097.7 112.8H1097.8L1098.7 110.4ZM1105.7 114.1Q1105 114.1 1104.5 113.9Q1104 113.7 1103.6 113.3Q1103.3 112.8 1103.1 112.2Q1102.9 111.6 1102.9 110.9Q1102.9 110.2 1103.1 109.6Q1103.3 109 1103.6 108.5Q1104 108.1 1104.5 107.9Q1105 107.7 1105.7 107.7Q1106.3 107.7 1106.8 107.9Q1107.4 108.1 1107.7 108.5Q1108.1 109 1108.3 109.6Q1108.5 110.2 1108.5 110.9Q1108.5 111.6 1108.3 112.2Q1108.1 112.8 1107.7 113.3Q1107.4 113.7 1106.8 113.9Q1106.3 114.1 1105.7 114.1ZM1105.7 113.3Q1106.5 113.3 1107 112.8Q1107.5 112.4 1107.5 111.3V110.5Q1107.5 109.5 1107 109Q1106.5 108.5 1105.7 108.5Q1104.9 108.5 1104.4 109Q1103.9 109.5 1103.9 110.5V111.3Q1103.9 112.4 1104.4 112.8Q1104.9 113.3 1105.7 113.3ZM1115.1 113H1115Q1114.9 113.2 1114.8 113.4Q1114.6 113.6 1114.4 113.8Q1114.2 114 1113.9 114Q1113.6 114.1 1113.3 114.1Q1112.3 114.1 1111.7 113.5Q1111.1 112.9 1111.1 111.8V107.8H1112.1V111.6Q1112.1 112.5 1112.4 112.9Q1112.8 113.3 1113.5 113.3Q1113.8 113.3 1114.1 113.2Q1114.4 113.1 1114.6 113Q1114.8 112.9 1114.9 112.6Q1115.1 112.4 1115.1 112.1V107.8H1116V114H1115.1ZM1118.8 113.2H1120.7V108.6H1118.8V107.8H1121.6V109.4H1121.7Q1121.9 108.6 1122.4 108.2Q1122.9 107.8 1123.8 107.8H1124.6V108.8H1123.5Q1122.6 108.8 1122.1 109.2Q1121.6 109.7 1121.6 110.5V113.2H1124V114H1118.8ZM1137.7 114Q1137 114 1136.6 113.6Q1136.3 113.2 1136.3 112.6V108.6H1134.2V107.8H1135.8Q1136.1 107.8 1136.2 107.7Q1136.3 107.6 1136.3 107.2V105.6H1137.3V107.8H1140.1V108.6H1137.3V113.2H1140.1V114ZM1142.6 113.2H1144.4V108.6H1142.6V107.8H1145.4V109.4H1145.4Q1145.6 108.6 1146.2 108.2Q1146.7 107.8 1147.5 107.8H1148.4V108.8H1147.2Q1146.4 108.8 1145.9 109.2Q1145.4 109.7 1145.4 110.5V113.2H1147.8V114H1142.6ZM1155.5 114Q1155 114 1154.7 113.7Q1154.5 113.4 1154.4 113H1154.4Q1154.2 113.5 1153.7 113.8Q1153.3 114.1 1152.5 114.1Q1151.5 114.1 1151 113.6Q1150.4 113.1 1150.4 112.3Q1150.4 111.4 1151 110.9Q1151.7 110.5 1153.1 110.5H1154.4V109.8Q1154.4 109.2 1154 108.8Q1153.6 108.5 1152.9 108.5Q1152.3 108.5 1151.9 108.7Q1151.5 109 1151.2 109.4L1150.6 108.9Q1150.7 108.7 1150.9 108.4Q1151.1 108.2 1151.4 108Q1151.7 107.9 1152.1 107.8Q1152.5 107.7 1153 107.7Q1154.1 107.7 1154.7 108.2Q1155.3 108.8 1155.3 109.8V113.2H1156.2V114ZM1152.7 113.3Q1153.1 113.3 1153.4 113.2Q1153.7 113.2 1153.9 113Q1154.1 112.9 1154.2 112.7Q1154.4 112.4 1154.4 112.2V111.2H1153.1Q1152.2 111.2 1151.8 111.4Q1151.4 111.7 1151.4 112.1V112.4Q1151.4 112.8 1151.7 113.1Q1152.1 113.3 1152.7 113.3ZM1161.5 106.4Q1161.1 106.4 1160.9 106.3Q1160.7 106.1 1160.7 105.8V105.6Q1160.7 105.4 1160.9 105.2Q1161.1 105 1161.5 105Q1161.9 105 1162.1 105.2Q1162.3 105.4 1162.3 105.6V105.8Q1162.3 106.1 1162.1 106.3Q1161.9 106.4 1161.5 106.4ZM1158.8 113.2H1161V108.6H1158.8V107.8H1162V113.2H1164.1V114H1158.8ZM1166.6 114V107.8H1167.6V108.8H1167.6Q1167.7 108.6 1167.9 108.4Q1168 108.2 1168.2 108Q1168.4 107.9 1168.7 107.8Q1169 107.7 1169.4 107.7Q1170.4 107.7 1170.9 108.3Q1171.5 108.9 1171.5 110V114H1170.6V110.2Q1170.6 109.3 1170.2 108.9Q1169.8 108.5 1169.1 108.5Q1168.8 108.5 1168.5 108.6Q1168.3 108.7 1168.1 108.8Q1167.8 108.9 1167.7 109.2Q1167.6 109.4 1167.6 109.7V114ZM1177.3 106.4Q1176.9 106.4 1176.8 106.3Q1176.6 106.1 1176.6 105.8V105.6Q1176.6 105.4 1176.8 105.2Q1176.9 105 1177.3 105Q1177.8 105 1177.9 105.2Q1178.1 105.4 1178.1 105.6V105.8Q1178.1 106.1 1177.9 106.3Q1177.8 106.4 1177.3 106.4ZM1174.6 113.2H1176.9V108.6H1174.6V107.8H1177.8V113.2H1179.9V114H1174.6ZM1182.5 114V107.8H1183.4V108.8H1183.5Q1183.6 108.6 1183.7 108.4Q1183.8 108.2 1184.1 108Q1184.3 107.9 1184.6 107.8Q1184.8 107.7 1185.2 107.7Q1186.2 107.7 1186.8 108.3Q1187.4 108.9 1187.4 110V114H1186.4V110.2Q1186.4 109.3 1186 108.9Q1185.7 108.5 1185 108.5Q1184.7 108.5 1184.4 108.6Q1184.1 108.7 1183.9 108.8Q1183.7 108.9 1183.5 109.2Q1183.4 109.4 1183.4 109.7V114ZM1195.9 114.7Q1195.9 115.6 1195.2 116.1Q1194.4 116.5 1192.8 116.5Q1191.3 116.5 1190.7 116.1Q1190 115.8 1190 115Q1190 114.5 1190.3 114.2Q1190.5 114 1191 113.8V113.7Q1190.7 113.5 1190.6 113.3Q1190.5 113.1 1190.5 112.8Q1190.5 112.3 1190.8 112.1Q1191.1 111.9 1191.6 111.7V111.7Q1191 111.4 1190.7 111Q1190.4 110.5 1190.4 109.8Q1190.4 109.3 1190.5 108.9Q1190.7 108.5 1191 108.3Q1191.3 108 1191.8 107.8Q1192.2 107.7 1192.8 107.7Q1193.5 107.7 1194 107.9V107.8Q1194 107.4 1194.2 107.2Q1194.3 107 1194.7 107H1195.9V107.8H1194.5V108.2Q1194.8 108.5 1195 108.9Q1195.2 109.3 1195.2 109.8Q1195.2 110.3 1195 110.7Q1194.8 111.1 1194.5 111.3Q1194.2 111.6 1193.8 111.8Q1193.3 111.9 1192.8 111.9Q1192.6 111.9 1192.5 111.9Q1192.3 111.9 1192.2 111.9Q1192 111.9 1191.9 112Q1191.7 112 1191.6 112.1Q1191.5 112.2 1191.4 112.3Q1191.3 112.4 1191.3 112.6Q1191.3 112.9 1191.6 113Q1191.8 113.1 1192.3 113.1H1193.7Q1194.9 113.1 1195.4 113.5Q1195.9 114 1195.9 114.7ZM1195 114.8Q1195 114.4 1194.7 114.2Q1194.4 113.9 1193.7 113.9H1191.5Q1190.9 114.2 1190.9 114.8Q1190.9 115.2 1191.2 115.5Q1191.6 115.8 1192.3 115.8H1193.3Q1194.1 115.8 1194.6 115.5Q1195 115.3 1195 114.8ZM1192.8 111.2Q1193.5 111.2 1193.8 110.9Q1194.2 110.5 1194.2 110V109.6Q1194.2 109.1 1193.8 108.7Q1193.5 108.4 1192.8 108.4Q1192 108.4 1191.7 108.7Q1191.4 109.1 1191.4 109.6V110Q1191.4 110.5 1191.7 110.9Q1192 111.2 1192.8 111.2ZM1206 113.2H1208.2V105.9H1206V105.1H1209.1V113.2H1211.3V114H1206ZM1216.6 114.1Q1215.9 114.1 1215.4 113.9Q1214.9 113.7 1214.5 113.3Q1214.1 112.8 1213.9 112.2Q1213.8 111.6 1213.8 110.9Q1213.8 110.2 1213.9 109.6Q1214.1 109 1214.5 108.5Q1214.9 108.1 1215.4 107.9Q1215.9 107.7 1216.6 107.7Q1217.2 107.7 1217.7 107.9Q1218.3 108.1 1218.6 108.5Q1219 109 1219.2 109.6Q1219.4 110.2 1219.4 110.9Q1219.4 111.6 1219.2 112.2Q1219 112.8 1218.6 113.3Q1218.3 113.7 1217.7 113.9Q1217.2 114.1 1216.6 114.1ZM1216.6 113.3Q1217.4 113.3 1217.9 112.8Q1218.3 112.4 1218.3 111.3V110.5Q1218.3 109.5 1217.9 109Q1217.4 108.5 1216.6 108.5Q1215.8 108.5 1215.3 109Q1214.8 109.5 1214.8 110.5V111.3Q1214.8 112.4 1215.3 112.8Q1215.8 113.3 1216.6 113.3ZM1224.6 114.1Q1223.6 114.1 1222.9 113.8Q1222.2 113.5 1221.7 112.9L1222.3 112.4Q1222.8 112.8 1223.3 113.1Q1223.8 113.3 1224.6 113.3Q1225.3 113.3 1225.8 113.1Q1226.2 112.8 1226.2 112.3Q1226.2 112 1226.1 111.9Q1226 111.7 1225.9 111.6Q1225.7 111.5 1225.5 111.5Q1225.3 111.4 1225.1 111.4L1224.2 111.2Q1223.8 111.2 1223.5 111.1Q1223.1 111 1222.8 110.8Q1222.5 110.6 1222.2 110.3Q1222 110 1222 109.5Q1222 109 1222.2 108.7Q1222.4 108.4 1222.7 108.1Q1223.1 107.9 1223.5 107.8Q1224 107.7 1224.5 107.7Q1225.4 107.7 1226 107.9Q1226.6 108.2 1227 108.7L1226.4 109.2Q1226.3 109.1 1226.2 109Q1226 108.8 1225.8 108.7Q1225.5 108.6 1225.2 108.5Q1224.9 108.5 1224.5 108.5Q1223.8 108.5 1223.4 108.7Q1223 109 1223 109.5Q1223 109.7 1223.1 109.9Q1223.2 110 1223.3 110.1Q1223.5 110.2 1223.7 110.3Q1223.9 110.3 1224.1 110.4L1225 110.5Q1225.4 110.5 1225.8 110.6Q1226.1 110.7 1226.4 110.9Q1226.7 111.1 1227 111.4Q1227.2 111.7 1227.2 112.2Q1227.2 113.1 1226.5 113.6Q1225.7 114.1 1224.6 114.1ZM1232.5 114.1Q1231.5 114.1 1230.8 113.8Q1230.1 113.5 1229.6 112.9L1230.3 112.4Q1230.7 112.8 1231.2 113.1Q1231.8 113.3 1232.5 113.3Q1233.2 113.3 1233.7 113.1Q1234.1 112.8 1234.1 112.3Q1234.1 112 1234.1 111.9Q1234 111.7 1233.8 111.6Q1233.6 111.5 1233.5 111.5Q1233.3 111.4 1233 111.4L1232.1 111.2Q1231.8 111.2 1231.4 111.1Q1231 111 1230.7 110.8Q1230.4 110.6 1230.2 110.3Q1230 110 1230 109.5Q1230 109 1230.1 108.7Q1230.3 108.4 1230.7 108.1Q1231 107.9 1231.5 107.8Q1231.9 107.7 1232.4 107.7Q1233.3 107.7 1233.9 107.9Q1234.5 108.2 1235 108.7L1234.3 109.2Q1234.2 109.1 1234.1 109Q1233.9 108.8 1233.7 108.7Q1233.4 108.6 1233.1 108.5Q1232.8 108.5 1232.4 108.5Q1231.7 108.5 1231.3 108.7Q1230.9 109 1230.9 109.5Q1230.9 109.7 1231 109.9Q1231.1 110 1231.2 110.1Q1231.4 110.2 1231.6 110.3Q1231.8 110.3 1232 110.4L1233 110.5Q1233.3 110.5 1233.7 110.6Q1234 110.7 1234.4 110.9Q1234.7 111.1 1234.9 111.4Q1235.1 111.7 1235.1 112.2Q1235.1 113.1 1234.4 113.6Q1233.7 114.1 1232.5 114.1Z" fill="#A8A29A" ><title>//  There was a sudden drop in your training loss</title></path><path d="M44 136H1236" stroke="#E2DDD4" stroke-width="1"/><path d="M44 136H1236" stroke="#FF4D12" stroke-width="1.6" pathLength="1" stroke-dasharray="1" stroke-dashoffset="1"><animate attributeName="stroke-dashoffset" values="1;1;0;0;1" keyTimes="0.0000;0.0222;0.2444;0.9333;1.0000" dur="9.0s" repeatCount="indefinite"/></path><g><circle cx="0" cy="0" r="13" fill="url(#spark)"><animate attributeName="r" values="13;19.5;13" dur="1.6s" repeatCount="indefinite"/></circle><path d="M0 -11.700000000000001L1.4 -1.4L11.700000000000001 0L1.4 1.4L0 11.700000000000001L-1.4 1.4L-11.700000000000001 0L-1.4 -1.4Z" fill="#fff" opacity=".9"/><animateMotion path="M44 136H1236" keyPoints="0;0;1;1" keyTimes="0.0000;0.0222;0.2444;1.0000" calcMode="linear" dur="9.0s" repeatCount="indefinite"/><animate attributeName="opacity" values="0;1;1;0;0" keyTimes="0.0000;0.0222;0.9111;0.9556;1.0000" dur="9.0s" repeatCount="indefinite"/></g></svg>