<svg xmlns="http://www.w3.org/2000/svg" viewBox="0 0 1280 160" width="1280" height="160" role="img" aria-label="01 · ABOUT"><title>01 · ABOUT</title><defs><filter id="glow" x="-50%" y="-50%" width="200%" height="200%"><feGaussianBlur stdDeviation="4" result="b"/><feMerge><feMergeNode in="b"/><feMergeNode in="SourceGraphic"/></feMerge></filter><filter id="bloom" x="-50%" y="-50%" width="200%" height="200%"><feGaussianBlur stdDeviation="9"/></filter><radialGradient id="spark"><stop offset="0" stop-color="#fff"/><stop offset=".25" stop-color="#FFE2C4"/><stop offset=".55" stop-color="#FF4D12" stop-opacity=".55"/><stop offset="1" stop-color="#FF4D12" stop-opacity="0"/></radialGradient></defs><rect width="1280" height="160" rx="10" fill="#0A0A0B"/><path d="M32 0V160M64 0V160M96 0V160M128 0V160M160 0V160M192 0V160M224 0V160M256 0V160M288 0V160M320 0V160M352 0V160M384 0V160M416 0V160M448 0V160M480 0V160M512 0V160M544 0V160M576 0V160M608 0V160M640 0V160M672 0V160M704 0V160M736 0V160M768 0V160M800 0V160M832 0V160M864 0V160M896 0V160M928 0V160M960 0V160M992 0V160M1024 0V160M1056 0V160M1088 0V160M1120 0V160M1152 0V160M1184 0V160M1216 0V160M1248 0V160M0 32H1280M0 64H1280M0 96H1280M0 128H1280" stroke="#121214" stroke-width="1" fill="none"/><path d="M10 22V10H22M1258 10H1270V22M1270 138V150H1258M22 150H10V138" stroke="#5E5B57" stroke-width="1.5" fill="none"/><path d="M45.1 46V37.6H48.1Q49.3 37.6 49.9 38.3Q50.5 38.9 50.5 40Q50.5 41.2 49.9 41.8Q49.3 42.4 48.1 42.4H46.1V46ZM46.1 41.6H48.1Q48.7 41.6 49.1 41.3Q49.4 40.9 49.4 40.3V39.7Q49.4 39.1 49.1 38.8Q48.7 38.5 48.1 38.5H46.1ZM56 46V37.6H57V45.1H61V46ZM70.9 46 70.2 43.6H67.2L66.5 46H65.5L68.1 37.6H69.4L72 46ZM68.8 38.7H68.7L67.5 42.7H69.9ZM79.8 38.5V46H78.8V38.5H76V37.6H82.6V38.5ZM87.3 46V37.6H92.5V38.5H88.3V41.3H92.3V42.2H88.3V45.1H92.5V46ZM111 46.1Q110.2 46.1 109.6 45.8Q109.1 45.6 108.7 45Q108.4 44.5 108.2 43.6Q108 42.8 108 41.8Q108 40.8 108.2 40Q108.4 39.2 108.7 38.6Q109.1 38.1 109.6 37.8Q110.2 37.5 111 37.5Q111.7 37.5 112.3 37.8Q112.8 38.1 113.2 38.6Q113.6 39.2 113.7 40Q113.9 40.8 113.9 41.8Q113.9 42.8 113.7 43.6Q113.6 44.5 113.2 45Q112.8 45.6 112.3 45.8Q111.7 46.1 111 46.1ZM111 45.3Q111.5 45.3 111.8 45.1Q112.2 44.9 112.4 44.5Q112.6 44.2 112.7 43.6Q112.8 43.1 112.8 42.5V41.1Q112.8 40.5 112.7 40Q112.6 39.5 112.4 39.1Q112.2 38.8 111.8 38.6Q111.5 38.4 111 38.4Q110.5 38.4 110.1 38.6Q109.7 38.8 109.5 39.1Q109.3 39.5 109.2 40Q109.1 40.5 109.1 41.1V42.5Q109.1 43.1 109.2 43.6Q109.3 44.2 109.5 44.5Q109.7 44.9 110.1 45.1Q110.5 45.3 111 45.3ZM111 42.5Q110.5 42.5 110.4 42.4Q110.2 42.2 110.2 41.9V41.7Q110.2 41.4 110.4 41.3Q110.5 41.1 111 41.1Q111.4 41.1 111.5 41.3Q111.7 41.4 111.7 41.7V41.9Q111.7 42.2 111.5 42.4Q111.4 42.5 111 42.5ZM118.9 46V45.1H121.3V38.4H121.3L119.1 40.3L118.6 39.7L120.8 37.6H122.3V45.1H124.6V46ZM153.2 43.2Q152.7 43.2 152.5 43Q152.3 42.8 152.3 42.5V42.2Q152.3 41.9 152.5 41.7Q152.7 41.5 153.2 41.5Q153.7 41.5 153.9 41.7Q154.1 41.9 154.1 42.2V42.5Q154.1 42.8 153.9 43Q153.7 43.2 153.2 43.2Z" fill="#9C978F" ><title>PLATE 01  ·  </title></path><path d="M184.8 46.1Q183.7 46.1 183 45.8Q182.2 45.4 181.7 44.7L182.6 43.9Q183.1 44.5 183.6 44.8Q184.2 45 184.9 45Q185.6 45 186.1 44.7Q186.5 44.3 186.5 43.6Q186.5 43.1 186.2 42.8Q185.9 42.5 185.1 42.4L184.2 42.2Q183.6 42.1 183.2 41.9Q182.8 41.7 182.5 41.4Q182.3 41.1 182.2 40.7Q182.1 40.3 182.1 39.9Q182.1 38.7 182.8 38.1Q183.6 37.5 184.9 37.5Q185.9 37.5 186.6 37.8Q187.3 38.1 187.8 38.7L186.9 39.5Q186.6 39.1 186.1 38.9Q185.6 38.6 184.9 38.6Q184.2 38.6 183.8 38.9Q183.4 39.2 183.4 39.8Q183.4 40.4 183.7 40.7Q184 40.9 184.8 41.1L185.7 41.2Q186.8 41.4 187.3 42.1Q187.9 42.7 187.9 43.6Q187.9 44.1 187.7 44.6Q187.5 45.1 187.1 45.4Q186.7 45.8 186.1 46Q185.5 46.1 184.8 46.1ZM192.8 46V37.6H196Q197.2 37.6 197.8 38.3Q198.4 39 198.4 40.1Q198.4 41.3 197.8 42Q197.2 42.7 196 42.7H194.2V46ZM194.2 41.5H195.8Q197 41.5 197 40.4V39.9Q197 38.7 195.8 38.7H194.2ZM207.9 46 207.3 43.8H204.6L204 46H202.6L205.1 37.6H206.9L209.4 46ZM206 39H205.9L204.9 42.7H207.1ZM215.3 46H214V37.6H217.1Q218.3 37.6 218.9 38.3Q219.6 39 219.6 40.1Q219.6 41.1 219.1 41.7Q218.6 42.4 217.7 42.5L219.7 46H218.2L216.4 42.6H215.3ZM216.9 41.5Q218.2 41.5 218.2 40.4V39.9Q218.2 38.7 216.9 38.7H215.3V41.5ZM226.8 42.1 225.8 43.4V46H224.5V37.6H225.8V41.6H225.9L226.9 40.2L228.9 37.6H230.5L227.7 41.2L230.6 46H229.1ZM237.6 46.1Q236.5 46.1 235.8 45.8Q235 45.4 234.5 44.7L235.4 43.9Q235.9 44.5 236.4 44.8Q237 45 237.7 45Q238.4 45 238.9 44.7Q239.3 44.3 239.3 43.6Q239.3 43.1 239 42.8Q238.7 42.5 237.9 42.4L237 42.2Q236.4 42.1 236 41.9Q235.6 41.7 235.3 41.4Q235.1 41.1 235 40.7Q234.9 40.3 234.9 39.9Q234.9 38.7 235.6 38.1Q236.4 37.5 237.7 37.5Q238.7 37.5 239.4 37.8Q240.1 38.1 240.6 38.7L239.7 39.5Q239.4 39.1 238.9 38.9Q238.4 38.6 237.7 38.6Q237 38.6 236.6 38.9Q236.2 39.2 236.2 39.8Q236.2 40.4 236.5 40.7Q236.8 40.9 237.6 41.1L238.5 41.2Q239.6 41.4 240.1 42.1Q240.7 42.7 240.7 43.6Q240.7 44.1 240.5 44.6Q240.3 45.1 239.9 45.4Q239.5 45.8 238.9 46Q238.3 46.1 237.6 46.1Z" fill="#FF4D12" ><title>SPARKS</title></path><path d="M40.6 116 59.9 70.6H77.4L96.6 116H80.1L77.8 109.8H58.7L56.5 116ZM62.8 99H73.9L71.2 91.6Q71 90.9 70.6 89.9Q70.3 88.9 69.9 87.8Q69.6 86.6 69.2 85.4Q68.9 84.2 68.6 83.3H68.1Q67.8 84.5 67.3 85.9Q66.8 87.4 66.3 88.9Q65.9 90.4 65.4 91.6ZM102.7 116V70.6H137.4Q141 70.6 144 72Q146.9 73.4 148.7 75.9Q150.5 78.4 150.5 81.7Q150.5 85 149.4 87.2Q148.3 89.3 146.5 90.5Q144.7 91.7 142.6 92.3V92.6Q145 93.1 147.1 94.4Q149.1 95.7 150.3 98Q151.5 100.3 151.5 103.9Q151.5 107.6 149.7 110.3Q147.8 113 144.7 114.5Q141.6 116 137.8 116ZM118.1 105.4H132.1Q133.7 105.4 134.7 104.4Q135.8 103.3 135.8 101.2Q135.8 100.2 135.3 99.4Q134.8 98.6 134 98.1Q133.1 97.7 132.1 97.7H118.1ZM118.1 88.3H131Q132.2 88.3 133 87.8Q133.8 87.3 134.2 86.4Q134.7 85.4 134.7 84.1Q134.7 82.6 133.6 81.6Q132.5 80.6 131 80.6H118.1ZM185.2 116.8Q176.7 116.8 170.5 114.1Q164.4 111.3 161.1 106.1Q157.8 100.8 157.8 93.3Q157.8 85.7 161.1 80.5Q164.4 75.2 170.5 72.5Q176.7 69.8 185.2 69.8Q193.8 69.8 199.9 72.5Q206.1 75.2 209.4 80.5Q212.7 85.7 212.7 93.3Q212.7 100.8 209.4 106.1Q206.1 111.3 199.9 114.1Q193.8 116.8 185.2 116.8ZM185.2 105.7Q188 105.7 190.1 104.9Q192.3 104.1 193.8 102.6Q195.3 101.2 196.1 99.1Q196.8 97.1 196.8 94.7V91.8Q196.8 89.4 196.1 87.4Q195.3 85.4 193.8 83.9Q192.3 82.5 190.1 81.7Q188 80.9 185.2 80.9Q182.5 80.9 180.3 81.7Q178.1 82.5 176.7 83.9Q175.2 85.4 174.4 87.4Q173.7 89.4 173.7 91.8V94.7Q173.7 97.1 174.4 99.1Q175.2 101.2 176.7 102.6Q178.1 104.1 180.3 104.9Q182.5 105.7 185.2 105.7ZM246.4 116.8Q238.1 116.8 232.5 114.4Q226.9 112 224 107.4Q221.2 102.7 221.2 95.9V70.6H236.6V95.5Q236.6 100.1 239.1 102.9Q241.6 105.6 246.3 105.6Q251.1 105.6 253.6 102.9Q256.1 100.1 256.1 95.5V70.6H271.5V95.9Q271.5 102.7 268.7 107.4Q265.9 112 260.2 114.4Q254.6 116.8 246.4 116.8ZM295.7 116V82.6H278.6V70.6H328.2V82.6H311.1V116Z" fill="#EEE9DF" ><title>ABOUT</title></path><path d="M865.9 72.8 866.2 72.5Q867.8 72.5 868.9 73.1Q869.9 73.7 870.4 74.7Q870.9 75.8 870.6 77.1Q870.3 78.5 869.5 79.6Q868.6 80.8 867.3 81.4Q866 82.1 864.5 82.1Q863.8 82.1 862.8 82Q861.8 81.9 861 81.9Q860.2 81.9 859.4 82Q858.6 82 858.1 82Q858 82 858 81.8Q858 81.7 858.1 81.7Q859 81.7 859.5 81.5Q859.9 81.4 860.2 81Q860.4 80.5 860.6 79.8L862.8 67.3Q863 66.1 862.7 65.8Q862.3 65.4 861 65.4Q860.9 65.4 860.9 65.3Q860.9 65.1 861 65.1Q861.6 65.1 862.4 65.2Q863.1 65.2 863.9 65.2Q864.5 65.2 865.4 65.1Q866.2 65 866.8 65Q868.4 65 869.3 65.5Q870.2 66 870.5 66.8Q870.8 67.7 870.6 68.7Q870.2 70.2 869 71.3Q867.8 72.3 865.9 72.8ZM866.2 65.4Q865.7 65.4 865.3 65.5Q864.9 65.7 864.7 66.1Q864.5 66.5 864.3 67.4L863.4 72.7L862.6 72.4Q863.4 72.5 863.9 72.5Q864.5 72.5 864.5 72.5Q866.5 72.5 867.6 71.4Q868.7 70.3 869 68.7Q869.2 67.8 869 67.1Q868.8 66.3 868.2 65.9Q867.5 65.4 866.2 65.4ZM864.2 81.6Q866.2 81.6 867.4 80.5Q868.5 79.4 868.8 77.6Q869.2 75.5 868.2 74.3Q867.3 73.1 865.2 73.1Q864.6 73.1 863.9 73.1Q863.3 73.1 862.6 73.2L863.3 72.9L862.1 79.9Q861.9 80.8 862.3 81.2Q862.7 81.6 864.2 81.6ZM875.4 82.4Q874.3 82.4 873.9 81.5Q873.5 80.7 873.8 78.8L874.8 74Q875 73.1 874.8 72.8Q874.7 72.4 874.4 72.4Q874.1 72.4 873.6 72.8Q873.2 73.1 872.6 73.7Q872.5 73.8 872.4 73.7Q872.3 73.5 872.4 73.4Q873.3 72.4 874 71.9Q874.7 71.3 875.4 71.3Q876.1 71.3 876.3 71.9Q876.5 72.5 876.2 74L875.3 78.3Q875 79.8 875.3 80.6Q875.5 81.3 876.3 81.3Q877.2 81.3 878.1 80.2Q879.1 79.1 879.9 77Q880.8 74.8 881.3 71.8L881.7 71.8Q881.1 75 880.2 77.3Q879.2 79.7 878 81Q876.8 82.4 875.4 82.4ZM880.7 82.2Q880 82.2 879.9 81.7Q879.7 81.1 880 79.7L881.3 71.8Q881.4 71.4 882.2 71.4Q882.6 71.4 882.7 71.4Q882.8 71.5 882.8 71.5Q882.8 71.6 882.7 72.3Q882.6 72.9 882.4 73.6L881.3 79.6Q881.1 81.2 881.8 81.2Q882.1 81.2 882.6 80.9Q883.1 80.5 883.6 79.9Q883.7 79.8 883.8 80Q883.9 80.1 883.9 80.2Q882.9 81.2 882.2 81.7Q881.4 82.2 880.7 82.2ZM887.4 82.2Q886.7 82.2 886.5 81.7Q886.3 81.1 886.6 79.6L887.7 74Q888 72.4 887.2 72.4Q886.9 72.4 886.4 72.7Q885.9 73 885.4 73.6Q885.3 73.7 885.2 73.6Q885.1 73.5 885.2 73.4Q886.1 72.4 886.8 71.8Q887.6 71.3 888.3 71.3Q889 71.3 889.2 71.9Q889.3 72.5 889 73.9L888 79.6Q887.8 80.4 887.9 80.8Q888.1 81.2 888.4 81.2Q888.7 81.2 889.2 80.9Q889.7 80.5 890.2 80Q890.3 79.9 890.5 80Q890.6 80.1 890.5 80.2Q889.6 81.2 888.8 81.7Q888.1 82.2 887.4 82.2ZM889.1 68.1Q888.5 68.1 888.2 67.9Q887.9 67.6 887.9 67Q887.9 66.5 888.2 66.2Q888.5 65.9 889.1 65.9Q889.6 65.9 889.9 66.2Q890.2 66.5 890.2 67Q890.2 68.1 889.1 68.1ZM893.6 82.2Q892.9 82.2 892.7 81.6Q892.5 81.1 892.7 79.6L895.4 65.3Q895.6 64.3 895.2 64.1Q894.9 63.8 893.6 64.4Q893.5 64.5 893.5 64.3Q893.4 64.2 893.5 64.1L897 62.4Q897.1 62.4 897.2 62.5Q897.3 62.6 897.3 62.6L894.2 79.6Q894 80.4 894.1 80.8Q894.3 81.2 894.6 81.2Q894.9 81.2 895.3 80.8Q895.8 80.5 896.4 79.9Q896.5 79.8 896.6 79.9Q896.7 80 896.6 80.1Q895.7 81.1 895 81.7Q894.3 82.2 893.6 82.2ZM900.3 82.4Q899.7 82.4 899.1 82Q898.5 81.6 898.3 80.8Q898 80 898.2 78.6Q898.5 77.1 899.2 75.8Q899.9 74.4 900.9 73.4Q902 72.4 903.1 71.8Q904.3 71.2 905.5 71.2Q906.2 71.2 906.9 71.6Q907.5 72.1 907.6 73L906.5 75.4Q905.7 77.4 904.7 79Q903.7 80.5 902.6 81.4Q901.5 82.4 900.3 82.4ZM901.2 81.1Q902.1 81.1 902.9 80.4Q903.8 79.7 904.5 78.6Q905.1 77.5 905.6 76.4Q906.1 75.3 906.2 74.5Q906.4 73.4 905.9 72.8Q905.4 72.2 904.5 72.2Q902.8 72.2 901.5 73.6Q900.2 74.9 899.7 77.5Q899.4 79.3 899.9 80.2Q900.3 81.1 901.2 81.1ZM906 82.2Q905.3 82.2 905.2 81.6Q905 81.1 905.3 79.6L908 65.3Q908.1 64.3 907.7 64.1Q907.3 63.8 906.1 64.4Q906 64.5 905.9 64.3Q905.9 64.2 906 64.1L909.5 62.4Q909.6 62.4 909.7 62.5Q909.8 62.6 909.8 62.6L906.6 79.6Q906.5 80.4 906.6 80.8Q906.8 81.2 907.1 81.2Q907.4 81.2 907.8 80.8Q908.3 80.5 908.9 79.9Q908.9 79.8 909.1 79.9Q909.2 80 909.1 80.1Q908.2 81.1 907.5 81.7Q906.8 82.2 906 82.2ZM912.2 82.3Q911.2 82.3 910.4 81.8Q909.7 81.3 909.8 80.6Q909.8 80.2 910.1 80.1Q910.3 79.9 910.6 79.9Q910.9 79.9 911.1 80.2Q911.3 80.4 911.5 80.8Q911.7 81.1 912 81.4Q912.4 81.7 913 81.7Q913.8 81.7 914.2 81.3Q914.6 80.9 914.8 80.1Q914.9 79.2 914.5 78.6Q914.2 78 913.6 77.5Q912.9 77 912.4 76.5Q911.8 76 911.4 75.4Q911.1 74.8 911.3 74Q911.4 73.1 912 72.5Q912.5 71.9 913.3 71.6Q914.1 71.3 914.9 71.3Q915.8 71.3 916.5 71.7Q917.1 72.1 917 72.7Q917 73 916.7 73.2Q916.5 73.4 916.2 73.4Q915.8 73.4 915.6 73.2Q915.4 73 915.2 72.7Q915 72.4 914.7 72.1Q914.4 71.9 913.9 71.9Q913.4 71.9 913 72.2Q912.6 72.4 912.5 73Q912.4 73.8 912.7 74.4Q913.1 75 913.7 75.5Q914.3 76 914.9 76.5Q915.5 77.1 915.8 77.7Q916.1 78.4 916 79.2Q915.9 80 915.3 80.7Q914.8 81.4 914 81.9Q913.2 82.3 912.2 82.3ZM926.1 82.4Q925.3 82.4 924.8 81.7Q924.3 81.1 924.5 79.5Q924.7 78.1 925.5 76.6Q926.2 75.1 927.2 73.9Q928.3 72.7 929.4 72Q930.6 71.2 931.6 71.2Q932.1 71.2 932.6 71.4Q933.1 71.6 933.4 72Q933.8 72.4 933.8 73.1L932.7 72.4Q933 72.3 933.5 71.9Q933.9 71.5 934.1 71Q934.1 70.9 934.3 71Q934.4 71 934.4 71L932.8 79.6Q932.5 81.2 933.2 81.2Q933.5 81.2 934 80.8Q934.5 80.5 935 79.9Q935.1 79.8 935.2 79.9Q935.3 80.1 935.2 80.1Q934.4 81.1 933.6 81.7Q932.9 82.2 932.2 82.2Q931.5 82.2 931.4 81.6Q931.2 81.1 931.4 79.6L932.1 75.8L932.5 75.4Q931.7 77.4 930.7 79Q929.6 80.6 928.4 81.5Q927.3 82.4 926.1 82.4ZM927.1 81Q927.9 81 928.7 80.4Q929.5 79.8 930.2 78.9Q931 77.9 931.5 76.8Q932.1 75.6 932.3 74.5Q932.5 73.5 932.1 72.8Q931.7 72.2 930.7 72.2Q929.8 72.2 928.8 73Q927.8 73.8 927.1 75.2Q926.3 76.6 926 78.3Q925.9 79.7 926.1 80.4Q926.4 81 927.1 81ZM944.8 82.2Q944.1 82.2 943.9 81.6Q943.7 81.1 944 79.6L944.8 75.3Q945.4 72.3 943.8 72.3Q942.9 72.3 942 73.4Q941 74.5 940.2 76.6Q939.3 78.8 938.8 81.8L938.4 81.8Q939 78.6 939.9 76.2Q940.9 73.9 942.1 72.6Q943.3 71.2 944.7 71.2Q945.8 71.2 946.2 72.1Q946.6 72.9 946.2 74.8L945.3 79.6Q945.2 80.4 945.3 80.8Q945.5 81.2 945.8 81.2Q946.1 81.2 946.6 80.8Q947 80.5 947.6 79.9Q947.7 79.8 947.8 79.9Q947.9 80 947.8 80.1Q946.9 81.1 946.2 81.7Q945.5 82.2 944.8 82.2ZM937.9 82.2Q937.5 82.2 937.4 82.2Q937.3 82.1 937.3 82.1Q937.3 81.9 937.4 81.3Q937.6 80.7 937.7 80L938.8 74Q939.1 72.4 938.3 72.4Q938 72.4 937.5 72.7Q937.1 73 936.5 73.6Q936.4 73.7 936.3 73.6Q936.1 73.5 936.2 73.4Q937.2 72.4 937.9 71.8Q938.7 71.3 939.4 71.3Q940.1 71.3 940.2 71.9Q940.4 72.5 940.2 73.9L938.8 81.8Q938.7 82.2 937.9 82.2ZM951.1 82.4Q950.4 82.4 949.8 82Q949.3 81.6 949 80.8Q948.7 80 949 78.6Q949.2 77.1 949.9 75.8Q950.7 74.4 951.7 73.4Q952.7 72.4 953.8 71.8Q955 71.2 956.2 71.2Q957 71.2 957.6 71.6Q958.3 72.1 958.3 73L957.2 75.4Q956.4 77.4 955.4 79Q954.4 80.5 953.3 81.4Q952.3 82.4 951.1 82.4ZM951.9 81.1Q952.8 81.1 953.7 80.4Q954.5 79.7 955.2 78.6Q955.9 77.5 956.3 76.4Q956.8 75.3 957 74.5Q957.2 73.4 956.7 72.8Q956.2 72.2 955.2 72.2Q953.5 72.2 952.2 73.6Q950.9 74.9 950.4 77.5Q950.2 79.3 950.6 80.2Q951 81.1 951.9 81.1ZM956.8 82.2Q956.1 82.2 955.9 81.6Q955.7 81.1 956 79.6L958.7 65.3Q958.9 64.3 958.5 64.1Q958.1 63.8 956.8 64.4Q956.7 64.5 956.7 64.3Q956.6 64.2 956.7 64.1L960.2 62.4Q960.3 62.4 960.4 62.5Q960.5 62.6 960.5 62.6L957.4 79.6Q957.2 80.4 957.3 80.8Q957.5 81.2 957.8 81.2Q958.1 81.2 958.6 80.8Q959 80.5 959.6 79.9Q959.7 79.8 959.8 79.9Q959.9 80 959.8 80.1Q958.9 81.1 958.2 81.7Q957.5 82.2 956.8 82.2ZM969.3 82.3Q968.2 82.3 967.5 81.8Q966.7 81.3 966.8 80.6Q966.9 80.2 967.1 80.1Q967.4 79.9 967.6 79.9Q968 79.9 968.2 80.2Q968.3 80.4 968.5 80.8Q968.7 81.1 969.1 81.4Q969.4 81.7 970.1 81.7Q970.8 81.7 971.3 81.3Q971.7 80.9 971.8 80.1Q971.9 79.2 971.6 78.6Q971.2 78 970.6 77.5Q970 77 969.4 76.5Q968.8 76 968.5 75.4Q968.2 74.8 968.3 74Q968.5 73.1 969 72.5Q969.6 71.9 970.4 71.6Q971.1 71.3 971.9 71.3Q972.9 71.3 973.5 71.7Q974.2 72.1 974.1 72.7Q974 73 973.8 73.2Q973.5 73.4 973.3 73.4Q972.9 73.4 972.7 73.2Q972.5 73 972.3 72.7Q972 72.4 971.8 72.1Q971.5 71.9 970.9 71.9Q970.4 71.9 970 72.2Q969.6 72.4 969.5 73Q969.4 73.8 969.8 74.4Q970.1 75 970.7 75.5Q971.3 76 971.9 76.5Q972.5 77.1 972.8 77.7Q973.2 78.4 973 79.2Q972.9 80 972.4 80.7Q971.9 81.4 971 81.9Q970.2 82.3 969.3 82.3ZM976.4 82.2Q976 82.2 975.9 82.2Q975.7 82.1 975.7 82.1Q975.7 81.9 975.9 81.3Q976 80.7 976.2 80L978.9 65.3Q979.1 64.3 978.7 64.1Q978.3 63.8 977.1 64.4Q977 64.5 976.9 64.3Q976.8 64.2 976.9 64.1L980.4 62.4Q980.5 62.4 980.6 62.5Q980.7 62.6 980.7 62.6L977.2 81.8Q977.2 82.2 976.4 82.2ZM983.3 82.2Q982.6 82.2 982.4 81.6Q982.2 81.1 982.5 79.6L983.3 75.3Q983.5 73.8 983.3 73Q983.1 72.3 982.3 72.3Q981.4 72.3 980.4 73.4Q979.5 74.5 978.6 76.6Q977.8 78.8 977.2 81.8L976.9 81.8Q977.5 78.6 978.4 76.2Q979.4 73.9 980.6 72.6Q981.8 71.2 983.1 71.2Q984.3 71.2 984.7 72.1Q985 72.9 984.7 74.8L983.8 79.6Q983.7 80.4 983.8 80.8Q983.9 81.2 984.3 81.2Q984.6 81.2 985 80.8Q985.5 80.5 986.1 79.9Q986.2 79.8 986.3 79.9Q986.4 80 986.3 80.1Q985.4 81.1 984.7 81.7Q984 82.2 983.3 82.2ZM989.7 82.2Q989 82.2 988.8 81.7Q988.6 81.1 988.9 79.6L990 74Q990.3 72.4 989.5 72.4Q989.2 72.4 988.7 72.7Q988.2 73 987.7 73.6Q987.6 73.7 987.5 73.6Q987.3 73.5 987.4 73.4Q988.4 72.4 989.1 71.8Q989.9 71.3 990.6 71.3Q991.2 71.3 991.4 71.9Q991.6 72.5 991.3 73.9L990.2 79.6Q990.1 80.4 990.2 80.8Q990.4 81.2 990.7 81.2Q991 81.2 991.5 80.9Q991.9 80.5 992.5 80Q992.6 79.9 992.7 80Q992.8 80.1 992.7 80.2Q991.8 81.2 991.1 81.7Q990.4 82.2 989.7 82.2ZM991.4 68.1Q990.8 68.1 990.5 67.9Q990.2 67.6 990.2 67Q990.2 66.5 990.5 66.2Q990.8 65.9 991.4 65.9Q991.9 65.9 992.2 66.2Q992.5 66.5 992.5 67Q992.5 68.1 991.4 68.1ZM991.8 89.4Q991.7 89.5 991.7 89.3Q991.7 89.1 991.8 89.1Q992.4 89 992.7 88.8Q993 88.7 993.1 88.3Q993.3 87.8 993.4 87L996.2 71.6Q996.2 71.5 996.4 71.3Q996.6 71.2 996.8 70.9Q997.1 70.7 997.3 70.3Q997.5 70 997.6 69.6Q997.7 69.5 997.8 69.5Q997.9 69.6 997.9 69.7L994.9 86.8Q994.7 87.9 995 88.2Q995.3 88.6 996.4 88.4Q996.5 88.4 996.6 88.5Q996.6 88.7 996.5 88.7ZM997.3 82Q996.3 82 995.8 81.9Q995.3 81.9 994.9 81.8L995.2 80.4Q995.7 80.7 996.4 81Q997 81.3 998 81.3Q999.3 81.3 1000.1 80.6Q1000.9 79.9 1001.4 78.7Q1001.9 77.5 1002.1 76.1Q1002.2 75.1 1002.1 74.3Q1002 73.4 1001.5 72.9Q1001 72.4 999.9 72.4Q998.7 72.4 997.4 73.1Q996.2 73.8 994.5 75.1Q994.4 75.1 994.3 75Q994.2 74.9 994.3 74.8Q995.9 73.4 997.7 72.4Q999.4 71.4 1001.1 71.4Q1002.6 71.4 1003.2 72.4Q1003.9 73.3 1003.6 75.2Q1003.4 76.5 1002.8 77.8Q1002.2 79 1001.3 80Q1000.5 80.9 999.4 81.5Q998.3 82 997.3 82ZM1007.1 82.3Q1006.1 82.3 1005.3 81.8Q1004.6 81.3 1004.7 80.6Q1004.7 80.2 1005 80.1Q1005.2 79.9 1005.5 79.9Q1005.8 79.9 1006 80.2Q1006.2 80.4 1006.4 80.8Q1006.6 81.1 1006.9 81.4Q1007.3 81.7 1007.9 81.7Q1008.6 81.7 1009.1 81.3Q1009.5 80.9 1009.6 80.1Q1009.7 79.2 1009.4 78.6Q1009 78 1008.4 77.5Q1007.8 77 1007.2 76.5Q1006.7 76 1006.3 75.4Q1006 74.8 1006.1 74Q1006.3 73.1 1006.9 72.5Q1007.4 71.9 1008.2 71.6Q1009 71.3 1009.7 71.3Q1010.7 71.3 1011.4 71.7Q1012 72.1 1011.9 72.7Q1011.8 73 1011.6 73.2Q1011.3 73.4 1011.1 73.4Q1010.7 73.4 1010.5 73.2Q1010.3 73 1010.1 72.7Q1009.9 72.4 1009.6 72.1Q1009.3 71.9 1008.8 71.9Q1008.3 71.9 1007.8 72.2Q1007.4 72.4 1007.4 73Q1007.2 73.8 1007.6 74.4Q1008 75 1008.6 75.5Q1009.1 76 1009.7 76.5Q1010.3 77.1 1010.7 77.7Q1011 78.4 1010.9 79.2Q1010.7 80 1010.2 80.7Q1009.7 81.4 1008.9 81.9Q1008.1 82.3 1007.1 82.3ZM1023 82.3Q1021.6 82.3 1020.8 81.6Q1019.9 80.8 1019.7 79.6Q1019.4 78.4 1019.7 77Q1019.9 76 1020.4 75Q1021 73.9 1021.8 73.1Q1022.6 72.3 1023.7 71.7Q1024.7 71.2 1025.9 71.2Q1026.9 71.2 1027.3 71.6Q1027.8 72 1027.7 72.7Q1027.6 73.3 1026.9 73.9Q1026.3 74.5 1025.3 75Q1024.4 75.5 1023.2 75.8Q1022 76.2 1020.7 76.3L1020.7 76Q1022.8 75.7 1024.2 75Q1025.6 74.3 1025.9 73.3Q1026.1 72.5 1025.6 72.2Q1025.2 72 1024.7 72Q1023.8 72 1023.1 72.5Q1022.4 73.1 1022 74Q1021.5 75 1021.3 76.1Q1021.1 77.6 1021.3 78.8Q1021.5 80 1022.2 80.7Q1022.9 81.4 1024 81.4Q1024.7 81.4 1025.4 81.2Q1026.1 81 1026.8 80.5Q1026.9 80.5 1027 80.6Q1027 80.7 1027 80.8Q1025.9 81.6 1025 82Q1024 82.3 1023 82.3ZM1037.2 82.2Q1036.5 82.2 1036.3 81.6Q1036.1 81.1 1036.4 79.6L1037.2 75.3Q1037.8 72.3 1036.2 72.3Q1035.3 72.3 1034.4 73.4Q1033.4 74.5 1032.6 76.6Q1031.7 78.8 1031.2 81.8L1030.9 81.8Q1031.4 78.6 1032.4 76.2Q1033.3 73.9 1034.5 72.6Q1035.8 71.2 1037.1 71.2Q1038.3 71.2 1038.6 72.1Q1039 72.9 1038.7 74.8L1037.8 79.6Q1037.6 80.4 1037.8 80.8Q1037.9 81.2 1038.2 81.2Q1038.5 81.2 1039 80.8Q1039.4 80.5 1040 79.9Q1040.1 79.8 1040.2 79.9Q1040.3 80 1040.2 80.1Q1039.4 81.1 1038.6 81.7Q1037.9 82.2 1037.2 82.2ZM1030.3 82.2Q1029.9 82.2 1029.8 82.2Q1029.7 82.1 1029.7 82.1Q1029.7 81.9 1029.8 81.3Q1030 80.7 1030.1 80L1031.2 74Q1031.5 72.4 1030.7 72.4Q1030.4 72.4 1030 72.7Q1029.5 73 1028.9 73.6Q1028.8 73.7 1028.7 73.6Q1028.6 73.5 1028.7 73.4Q1029.6 72.4 1030.4 71.8Q1031.1 71.3 1031.8 71.3Q1032.5 71.3 1032.6 71.9Q1032.8 72.5 1032.6 73.9L1031.2 81.8Q1031.1 82.2 1030.3 82.2ZM1043.5 82.4Q1042.8 82.4 1042.2 82Q1041.7 81.6 1041.4 80.8Q1041.2 80 1041.4 78.6Q1041.7 77.1 1042.4 75.8Q1043.1 74.4 1044.1 73.4Q1045.1 72.4 1046.3 71.8Q1047.4 71.2 1048.6 71.2Q1049.4 71.2 1050 71.6Q1050.7 72.1 1050.8 73L1049.6 75.4Q1048.8 77.4 1047.8 79Q1046.8 80.5 1045.8 81.4Q1044.7 82.4 1043.5 82.4ZM1044.4 81.1Q1045.2 81.1 1046.1 80.4Q1046.9 79.7 1047.6 78.6Q1048.3 77.5 1048.8 76.4Q1049.2 75.3 1049.4 74.5Q1049.6 73.4 1049.1 72.8Q1048.6 72.2 1047.6 72.2Q1045.9 72.2 1044.6 73.6Q1043.3 74.9 1042.9 77.5Q1042.6 79.3 1043 80.2Q1043.5 81.1 1044.4 81.1ZM1049.2 82.2Q1048.5 82.2 1048.3 81.6Q1048.2 81.1 1048.4 79.6L1051.1 65.3Q1051.3 64.3 1050.9 64.1Q1050.5 63.8 1049.2 64.4Q1049.1 64.5 1049.1 64.3Q1049 64.2 1049.1 64.1L1052.6 62.4Q1052.7 62.4 1052.8 62.5Q1052.9 62.6 1052.9 62.6L1049.8 79.6Q1049.6 80.4 1049.8 80.8Q1049.9 81.2 1050.2 81.2Q1050.5 81.2 1051 80.8Q1051.5 80.5 1052 79.9Q1052.1 79.8 1052.2 79.9Q1052.3 80 1052.2 80.1Q1051.3 81.1 1050.6 81.7Q1049.9 82.2 1049.2 82.2ZM1053.5 77.5Q1053.4 77.5 1053.4 77.2Q1053.4 76.9 1053.4 76.6Q1053.4 76.3 1053.5 76.3L1060.2 75Q1060.3 75 1060.3 75.3Q1060.3 75.6 1060.3 75.9Q1060.3 76.2 1060.2 76.2ZM1064.1 82.3Q1063.6 82.3 1063.2 82.1Q1062.7 81.9 1062.5 81.4Q1062.2 80.9 1062.4 80L1063.6 73.7Q1063.7 72.7 1063.6 72.5Q1063.4 72.3 1062.6 72.3Q1062.5 72.3 1062.6 72.1Q1062.6 71.9 1062.7 71.9Q1063.6 71.9 1064.3 71.3Q1065 70.7 1065.2 69.8Q1065.2 69.8 1065.4 69.8Q1065.7 69.8 1065.6 69.8L1064 79.2Q1063.7 80.3 1064.1 80.8Q1064.4 81.3 1065.2 81.3Q1066 81.3 1066.6 81Q1067.2 80.6 1067.8 80.1Q1067.8 80.1 1068 80.2Q1068.1 80.3 1068 80.3Q1066.8 81.4 1065.9 81.9Q1065 82.3 1064.1 82.3ZM1068 72.8Q1068 72.8 1067.4 72.7Q1066.9 72.6 1066.2 72.6Q1065.5 72.5 1064.8 72.5L1064.8 71.8Q1065.5 71.8 1066.4 71.8Q1067.2 71.7 1067.8 71.7Q1068.5 71.7 1068.7 71.7Q1068.8 71.7 1068.9 71.7Q1068.9 71.8 1068.9 71.9Q1068.9 72.1 1068.6 72.4Q1068.3 72.8 1068 72.8ZM1073 82.4Q1071.7 82.4 1070.9 81.6Q1070 80.9 1069.7 79.6Q1069.4 78.3 1069.7 76.8Q1070 75.2 1070.9 73.9Q1071.7 72.7 1072.9 72Q1074.1 71.2 1075.4 71.2Q1076.8 71.2 1077.7 72Q1078.5 72.8 1078.8 74Q1079.1 75.3 1078.8 76.8Q1078.4 78.5 1077.5 79.8Q1076.6 81 1075.4 81.7Q1074.2 82.4 1073 82.4ZM1073.9 81.7Q1075.1 81.7 1076 80.7Q1076.9 79.7 1077.2 78Q1077.4 77 1077.4 75.9Q1077.3 74.8 1077 73.9Q1076.7 73 1076.1 72.4Q1075.5 71.9 1074.6 71.9Q1073.5 71.9 1072.5 72.9Q1071.6 73.9 1071.2 75.6Q1071 76.7 1071.1 77.7Q1071.2 78.8 1071.5 79.7Q1071.9 80.6 1072.5 81.1Q1073.1 81.7 1073.9 81.7ZM1080.5 77.5Q1080.4 77.5 1080.3 77.2Q1080.3 76.9 1080.3 76.6Q1080.3 76.3 1080.4 76.3L1087.1 75Q1087.2 75 1087.2 75.3Q1087.3 75.6 1087.2 75.9Q1087.2 76.2 1087.1 76.2ZM1092 82.3Q1090.6 82.3 1089.8 81.6Q1088.9 80.8 1088.7 79.6Q1088.4 78.4 1088.7 77Q1088.8 76 1089.4 75Q1090 73.9 1090.8 73.1Q1091.6 72.3 1092.7 71.7Q1093.7 71.2 1094.8 71.2Q1095.8 71.2 1096.3 71.6Q1096.8 72 1096.7 72.7Q1096.5 73.3 1095.9 73.9Q1095.3 74.5 1094.3 75Q1093.4 75.5 1092.2 75.8Q1091 76.2 1089.7 76.3L1089.7 76Q1091.8 75.7 1093.2 75Q1094.6 74.3 1094.9 73.3Q1095.1 72.5 1094.6 72.2Q1094.2 72 1093.7 72Q1092.7 72 1092.1 72.5Q1091.4 73.1 1091 74Q1090.5 75 1090.3 76.1Q1090 77.6 1090.3 78.8Q1090.5 80 1091.2 80.7Q1091.9 81.4 1093 81.4Q1093.7 81.4 1094.4 81.2Q1095.1 81 1095.8 80.5Q1095.8 80.5 1095.9 80.6Q1096 80.7 1096 80.8Q1094.9 81.6 1094 82Q1093 82.3 1092 82.3ZM1106.2 82.2Q1105.5 82.2 1105.3 81.6Q1105.1 81.1 1105.4 79.6L1106.2 75.3Q1106.8 72.3 1105.2 72.3Q1104.3 72.3 1103.4 73.4Q1102.4 74.5 1101.6 76.6Q1100.7 78.8 1100.2 81.8L1099.8 81.8Q1100.4 78.6 1101.4 76.2Q1102.3 73.9 1103.5 72.6Q1104.8 71.2 1106.1 71.2Q1107.2 71.2 1107.6 72.1Q1108 72.9 1107.6 74.8L1106.8 79.6Q1106.6 80.4 1106.8 80.8Q1106.9 81.2 1107.2 81.2Q1107.5 81.2 1108 80.8Q1108.4 80.5 1109 79.9Q1109.1 79.8 1109.2 79.9Q1109.3 80 1109.2 80.1Q1108.3 81.1 1107.6 81.7Q1106.9 82.2 1106.2 82.2ZM1099.3 82.2Q1098.9 82.2 1098.8 82.2Q1098.7 82.1 1098.7 82.1Q1098.7 81.9 1098.8 81.3Q1099 80.7 1099.1 80L1100.2 74Q1100.5 72.4 1099.7 72.4Q1099.4 72.4 1098.9 72.7Q1098.5 73 1097.9 73.6Q1097.8 73.7 1097.7 73.6Q1097.5 73.5 1097.7 73.4Q1098.6 72.4 1099.3 71.8Q1100.1 71.3 1100.8 71.3Q1101.5 71.3 1101.6 71.9Q1101.8 72.5 1101.6 73.9L1100.2 81.8Q1100.1 82.2 1099.3 82.2ZM1112.5 82.4Q1111.8 82.4 1111.2 82Q1110.7 81.6 1110.4 80.8Q1110.2 80 1110.4 78.6Q1110.6 77.1 1111.4 75.8Q1112.1 74.4 1113.1 73.4Q1114.1 72.4 1115.3 71.8Q1116.4 71.2 1117.6 71.2Q1118.4 71.2 1119 71.6Q1119.7 72.1 1119.7 73L1118.6 75.4Q1117.8 77.4 1116.8 79Q1115.8 80.5 1114.7 81.4Q1113.7 82.4 1112.5 82.4ZM1113.3 81.1Q1114.2 81.1 1115.1 80.4Q1115.9 79.7 1116.6 78.6Q1117.3 77.5 1117.7 76.4Q1118.2 75.3 1118.4 74.5Q1118.6 73.4 1118.1 72.8Q1117.6 72.2 1116.6 72.2Q1114.9 72.2 1113.6 73.6Q1112.3 74.9 1111.9 77.5Q1111.6 79.3 1112 80.2Q1112.4 81.1 1113.3 81.1ZM1118.2 82.2Q1117.5 82.2 1117.3 81.6Q1117.1 81.1 1117.4 79.6L1120.1 65.3Q1120.3 64.3 1119.9 64.1Q1119.5 63.8 1118.2 64.4Q1118.1 64.5 1118.1 64.3Q1118 64.2 1118.1 64.1L1121.6 62.4Q1121.7 62.4 1121.8 62.5Q1121.9 62.6 1121.9 62.6L1118.8 79.6Q1118.6 80.4 1118.8 80.8Q1118.9 81.2 1119.2 81.2Q1119.5 81.2 1120 80.8Q1120.4 80.5 1121 79.9Q1121.1 79.8 1121.2 79.9Q1121.3 80 1121.2 80.1Q1120.3 81.1 1119.6 81.7Q1118.9 82.2 1118.2 82.2ZM1127 82Q1126.9 82 1126.9 81.8Q1126.9 81.7 1127 81.7Q1127.7 81.7 1128.6 81.1Q1129.5 80.4 1130.5 78.7L1138.3 64.9Q1138.3 64.7 1138.5 64.8Q1138.7 64.8 1138.7 64.9L1141.1 79.7Q1141.2 80.5 1141.4 80.9Q1141.6 81.3 1142 81.5Q1142.4 81.7 1143.1 81.7Q1143.3 81.7 1143.3 81.8Q1143.3 82 1143.1 82Q1142.5 82 1141.9 81.9Q1141.2 81.9 1140.4 81.9Q1139.6 81.9 1139 81.9Q1138.4 82 1137.8 82Q1137.7 82 1137.7 81.8Q1137.7 81.7 1137.8 81.7Q1139.1 81.7 1139.4 81.3Q1139.7 80.9 1139.5 79.7L1137.5 67L1138.2 66.2L1131.4 78.4Q1130.7 79.8 1130.6 80.5Q1130.5 81.2 1131 81.4Q1131.5 81.7 1132.3 81.7Q1132.5 81.7 1132.5 81.8Q1132.5 82 1132.3 82Q1131.8 82 1131 81.9Q1130.2 81.9 1129.5 81.9Q1128.7 81.9 1128.2 81.9Q1127.7 82 1127 82ZM1133.2 74.6 1133.6 74H1139.4L1139.4 74.6ZM1144.7 82Q1144.6 82 1144.6 81.8Q1144.6 81.7 1144.7 81.7Q1145.5 81.7 1146 81.5Q1146.4 81.4 1146.6 81Q1146.8 80.6 1147 79.8L1149.2 67.3Q1149.4 66.2 1149.1 65.8Q1148.8 65.4 1147.5 65.4Q1147.4 65.4 1147.4 65.3Q1147.4 65.1 1147.5 65.1Q1148.1 65.1 1148.8 65.2Q1149.5 65.2 1150.2 65.2Q1151.1 65.2 1151.8 65.2Q1152.5 65.1 1153.1 65.1Q1153.1 65.1 1153.1 65.3Q1153.1 65.4 1153.1 65.4Q1152.2 65.4 1151.8 65.6Q1151.3 65.8 1151.1 66.2Q1150.9 66.6 1150.8 67.4L1148.5 79.8Q1148.4 81 1148.7 81.3Q1149 81.7 1150.2 81.7Q1150.3 81.7 1150.3 81.8Q1150.3 82 1150.2 82Q1149.7 82 1149 82Q1148.3 81.9 1147.4 81.9Q1146.7 81.9 1146 82Q1145.3 82 1144.7 82ZM1161.5 82.3Q1160.5 82.3 1159.7 81.8Q1159 81.3 1159.1 80.6Q1159.1 80.2 1159.4 80.1Q1159.6 79.9 1159.9 79.9Q1160.2 79.9 1160.4 80.2Q1160.6 80.4 1160.8 80.8Q1161 81.1 1161.3 81.4Q1161.7 81.7 1162.3 81.7Q1163 81.7 1163.5 81.3Q1163.9 80.9 1164 80.1Q1164.2 79.2 1163.8 78.6Q1163.5 78 1162.8 77.5Q1162.2 77 1161.7 76.5Q1161.1 76 1160.7 75.4Q1160.4 74.8 1160.6 74Q1160.7 73.1 1161.3 72.5Q1161.8 71.9 1162.6 71.6Q1163.4 71.3 1164.2 71.3Q1165.1 71.3 1165.8 71.7Q1166.4 72.1 1166.3 72.7Q1166.3 73 1166 73.2Q1165.7 73.4 1165.5 73.4Q1165.1 73.4 1164.9 73.2Q1164.7 73 1164.5 72.7Q1164.3 72.4 1164 72.1Q1163.7 71.9 1163.2 71.9Q1162.7 71.9 1162.3 72.2Q1161.9 72.4 1161.8 73Q1161.6 73.8 1162 74.4Q1162.4 75 1163 75.5Q1163.6 76 1164.2 76.5Q1164.7 77.1 1165.1 77.7Q1165.4 78.4 1165.3 79.2Q1165.2 80 1164.6 80.7Q1164.1 81.4 1163.3 81.9Q1162.5 82.3 1161.5 82.3ZM1166.4 89.6Q1166 89.6 1165.6 89.3Q1165.3 89.1 1165.4 88.5Q1165.6 87.8 1166.4 87.8Q1167 87.8 1167.6 87.7Q1168.1 87.7 1168.6 87.5Q1169.2 87.4 1169.7 87.1Q1170.3 86.7 1171 85.7Q1171.8 84.7 1172.7 83.4Q1173.5 82.1 1174.3 80.8Q1175.1 79.4 1175.7 78.2Q1176.2 77.1 1176.4 76.3Q1176.6 75.5 1176.5 74.9Q1176.5 74.2 1176.3 73.7Q1176.2 73.2 1176 72.8Q1175.9 72.4 1175.9 72.2Q1175.9 71.8 1176.2 71.6Q1176.4 71.3 1176.9 71.3Q1177.4 71.3 1177.7 71.7Q1177.9 72.1 1177.9 72.8Q1177.9 73.8 1177.5 75.1Q1177 76.5 1176.3 78.1Q1175.5 79.7 1174.6 81.3Q1173.6 82.9 1172.6 84.4Q1171.5 85.9 1170.4 87Q1169.3 88.2 1168.3 88.9Q1167.3 89.6 1166.4 89.6ZM1171.8 85.1Q1172 79.1 1171.2 75.8Q1170.4 72.5 1168.8 72.5Q1168.4 72.5 1168.1 72.7Q1167.7 73 1167.4 73.5Q1167.4 73.6 1167.2 73.6Q1167.1 73.5 1167.1 73.4Q1167.6 72.4 1168.3 71.9Q1168.9 71.3 1169.6 71.3Q1170.6 71.3 1171.3 72.3Q1172 73.2 1172.5 74.8Q1173 76.4 1173.1 78.5Q1173.3 80.6 1173.2 82.9ZM1181.6 82.3Q1180.6 82.3 1179.8 81.8Q1179.1 81.3 1179.2 80.6Q1179.2 80.2 1179.5 80.1Q1179.7 79.9 1180 79.9Q1180.4 79.9 1180.5 80.2Q1180.7 80.4 1180.9 80.8Q1181.1 81.1 1181.4 81.4Q1181.8 81.7 1182.4 81.7Q1183.2 81.7 1183.6 81.3Q1184.1 80.9 1184.2 80.1Q1184.3 79.2 1183.9 78.6Q1183.6 78 1183 77.5Q1182.4 77 1181.8 76.5Q1181.2 76 1180.9 75.4Q1180.5 74.8 1180.7 74Q1180.8 73.1 1181.4 72.5Q1181.9 71.9 1182.7 71.6Q1183.5 71.3 1184.3 71.3Q1185.2 71.3 1185.9 71.7Q1186.5 72.1 1186.5 72.7Q1186.4 73 1186.1 73.2Q1185.9 73.4 1185.6 73.4Q1185.2 73.4 1185 73.2Q1184.8 73 1184.6 72.7Q1184.4 72.4 1184.1 72.1Q1183.8 71.9 1183.3 71.9Q1182.8 71.9 1182.4 72.2Q1182 72.4 1181.9 73Q1181.8 73.8 1182.1 74.4Q1182.5 75 1183.1 75.5Q1183.7 76 1184.3 76.5Q1184.9 77.1 1185.2 77.7Q1185.5 78.4 1185.4 79.2Q1185.3 80 1184.7 80.7Q1184.2 81.4 1183.4 81.9Q1182.6 82.3 1181.6 82.3ZM1190.3 82.3Q1189.8 82.3 1189.3 82.1Q1188.9 81.9 1188.6 81.4Q1188.4 80.9 1188.6 80L1189.7 73.7Q1189.9 72.7 1189.8 72.5Q1189.6 72.3 1188.8 72.3Q1188.7 72.3 1188.7 72.1Q1188.7 71.9 1188.8 71.9Q1189.8 71.9 1190.5 71.3Q1191.1 70.7 1191.3 69.8Q1191.4 69.8 1191.6 69.8Q1191.8 69.8 1191.8 69.8L1190.1 79.2Q1189.9 80.3 1190.2 80.8Q1190.5 81.3 1191.4 81.3Q1192.2 81.3 1192.8 81Q1193.4 80.6 1194 80.1Q1194 80.1 1194.1 80.2Q1194.3 80.3 1194.2 80.3Q1193 81.4 1192 81.9Q1191.1 82.3 1190.3 82.3ZM1194.2 72.8Q1194.1 72.8 1193.6 72.7Q1193.1 72.6 1192.4 72.6Q1191.6 72.5 1191 72.5L1191 71.8Q1191.7 71.8 1192.5 71.8Q1193.3 71.7 1194 71.7Q1194.7 71.7 1194.9 71.7Q1195 71.7 1195.1 71.7Q1195.1 71.8 1195.1 71.9Q1195 72.1 1194.8 72.4Q1194.5 72.8 1194.2 72.8ZM1199.2 82.3Q1197.8 82.3 1196.9 81.6Q1196.1 80.8 1195.9 79.6Q1195.6 78.4 1195.9 77Q1196 76 1196.6 75Q1197.1 73.9 1198 73.1Q1198.8 72.3 1199.8 71.7Q1200.9 71.2 1202 71.2Q1203 71.2 1203.5 71.6Q1204 72 1203.9 72.7Q1203.7 73.3 1203.1 73.9Q1202.5 74.5 1201.5 75Q1200.5 75.5 1199.3 75.8Q1198.1 76.2 1196.8 76.3L1196.9 76Q1199 75.7 1200.4 75Q1201.8 74.3 1202.1 73.3Q1202.2 72.5 1201.8 72.2Q1201.4 72 1200.8 72Q1199.9 72 1199.3 72.5Q1198.6 73.1 1198.1 74Q1197.7 75 1197.5 76.1Q1197.2 77.6 1197.5 78.8Q1197.7 80 1198.4 80.7Q1199.1 81.4 1200.2 81.4Q1200.9 81.4 1201.6 81.2Q1202.3 81 1203 80.5Q1203 80.5 1203.1 80.6Q1203.2 80.7 1203.1 80.8Q1202.1 81.6 1201.1 82Q1200.2 82.3 1199.2 82.3ZM1219 82.2Q1218.4 82.2 1218.2 81.6Q1218 81.1 1218.3 79.6L1219.1 75.3Q1219.3 73.8 1219.1 73Q1218.9 72.3 1218.2 72.3Q1217.3 72.3 1216.4 73.4Q1215.5 74.5 1214.7 76.6Q1213.8 78.7 1213.3 81.8L1213 81.8Q1213.5 78.6 1214.4 76.2Q1215.4 73.8 1216.6 72.5Q1217.7 71.2 1219 71.2Q1220.1 71.2 1220.5 72.1Q1220.9 72.9 1220.5 74.8L1219.6 79.6Q1219.5 80.4 1219.6 80.8Q1219.7 81.2 1220.1 81.2Q1220.4 81.2 1220.8 80.8Q1221.3 80.5 1221.9 79.9Q1222 79.8 1222.1 79.9Q1222.2 80 1222.1 80.1Q1221.2 81.1 1220.5 81.7Q1219.7 82.2 1219 82.2ZM1206.5 82.2Q1206.1 82.2 1206 82.2Q1205.9 82.1 1205.9 82.1Q1205.9 81.9 1206 81.4Q1206.1 80.8 1206.2 80.1L1207.4 74Q1207.6 72.4 1206.9 72.4Q1206.6 72.4 1206.1 72.7Q1205.7 73 1205.1 73.6Q1205 73.7 1204.9 73.6Q1204.7 73.5 1204.8 73.4Q1205.8 72.4 1206.5 71.8Q1207.3 71.3 1208 71.3Q1208.6 71.3 1208.8 71.9Q1209 72.5 1208.8 73.9L1207.4 81.8Q1207.2 82.2 1206.5 82.2ZM1212.4 82.2Q1212.1 82.2 1211.9 82.2Q1211.8 82.1 1211.8 82.1Q1211.8 81.9 1212 81.3Q1212.1 80.6 1212.2 80L1213.1 75.3Q1213.3 73.8 1213.1 73Q1212.9 72.3 1212.2 72.3Q1211.4 72.3 1210.5 73.4Q1209.5 74.5 1208.7 76.6Q1207.9 78.8 1207.4 81.8L1207 81.8Q1207.5 78.6 1208.5 76.2Q1209.4 73.9 1210.6 72.6Q1211.8 71.2 1213.1 71.2Q1214.1 71.2 1214.5 72.1Q1214.9 72.9 1214.5 74.8L1213.3 81.8Q1213.2 82.2 1212.4 82.2ZM1225.3 82.3Q1224.2 82.3 1223.5 81.8Q1222.7 81.3 1222.8 80.6Q1222.9 80.2 1223.1 80.1Q1223.4 79.9 1223.6 79.9Q1224 79.9 1224.2 80.2Q1224.3 80.4 1224.5 80.8Q1224.7 81.1 1225.1 81.4Q1225.4 81.7 1226.1 81.7Q1226.8 81.7 1227.2 81.3Q1227.7 80.9 1227.8 80.1Q1227.9 79.2 1227.5 78.6Q1227.2 78 1226.6 77.5Q1226 77 1225.4 76.5Q1224.8 76 1224.5 75.4Q1224.1 74.8 1224.3 74Q1224.5 73.1 1225 72.5Q1225.6 71.9 1226.3 71.6Q1227.1 71.3 1227.9 71.3Q1228.9 71.3 1229.5 71.7Q1230.2 72.1 1230.1 72.7Q1230 73 1229.7 73.2Q1229.5 73.4 1229.2 73.4Q1228.9 73.4 1228.7 73.2Q1228.4 73 1228.2 72.7Q1228 72.4 1227.8 72.1Q1227.5 71.9 1226.9 71.9Q1226.4 71.9 1226 72.2Q1225.6 72.4 1225.5 73Q1225.4 73.8 1225.8 74.4Q1226.1 75 1226.7 75.5Q1227.3 76 1227.9 76.5Q1228.5 77.1 1228.8 77.7Q1229.2 78.4 1229 79.2Q1228.9 80 1228.4 80.7Q1227.8 81.4 1227 81.9Q1226.2 82.3 1225.3 82.3ZM1232.5 82.3Q1232 82.3 1231.7 82Q1231.4 81.7 1231.4 81.1Q1231.4 80.6 1231.7 80.3Q1232 80 1232.5 80Q1233.1 80 1233.4 80.3Q1233.7 80.6 1233.7 81.1Q1233.7 82.3 1232.5 82.3Z" fill="#B9B3A8" ><title>Builds and ships end-to-end AI systems.</title></path><path d="M960.6 115.7 964.8 104.9H965.6L961.5 115.7ZM968.5 115.7 972.7 104.9H973.6L969.4 115.7ZM992.2 114V113.2H994.3V106.4H992.2V105.6H997.4V106.4H995.3V113.2H997.4V114ZM1010.7 114.1Q1009.7 114.1 1009 113.8Q1008.3 113.5 1007.8 112.9L1008.5 112.4Q1008.9 112.8 1009.5 113.1Q1010 113.3 1010.7 113.3Q1011.5 113.3 1011.9 113.1Q1012.4 112.8 1012.4 112.3Q1012.4 112 1012.3 111.9Q1012.2 111.7 1012 111.6Q1011.9 111.5 1011.7 111.5Q1011.5 111.4 1011.3 111.4L1010.3 111.2Q1010 111.2 1009.6 111.1Q1009.2 111 1008.9 110.8Q1008.6 110.6 1008.4 110.3Q1008.2 110 1008.2 109.5Q1008.2 109 1008.4 108.7Q1008.6 108.4 1008.9 108.1Q1009.2 107.9 1009.7 107.8Q1010.1 107.7 1010.7 107.7Q1011.5 107.7 1012.1 107.9Q1012.8 108.2 1013.2 108.7L1012.6 109.2Q1012.5 109.1 1012.3 109Q1012.2 108.8 1011.9 108.7Q1011.7 108.6 1011.4 108.5Q1011.1 108.5 1010.7 108.5Q1009.9 108.5 1009.5 108.7Q1009.1 109 1009.1 109.5Q1009.1 109.7 1009.2 109.9Q1009.3 110 1009.5 110.1Q1009.6 110.2 1009.8 110.3Q1010 110.3 1010.2 110.4L1011.2 110.5Q1011.5 110.5 1011.9 110.6Q1012.3 110.7 1012.6 110.9Q1012.9 111.1 1013.1 111.4Q1013.3 111.7 1013.3 112.2Q1013.3 113.1 1012.6 113.6Q1011.9 114.1 1010.7 114.1ZM1016.1 105.1H1017.1V108.8H1017.1Q1017.2 108.6 1017.4 108.4Q1017.5 108.2 1017.7 108Q1017.9 107.9 1018.2 107.8Q1018.5 107.7 1018.9 107.7Q1019.9 107.7 1020.5 108.3Q1021.1 108.9 1021.1 110V114H1020.1V110.2Q1020.1 109.3 1019.7 108.9Q1019.4 108.5 1018.6 108.5Q1018.3 108.5 1018.1 108.6Q1017.8 108.7 1017.6 108.8Q1017.4 108.9 1017.2 109.2Q1017.1 109.4 1017.1 109.7V114H1016.1ZM1026.9 106.4Q1026.4 106.4 1026.3 106.3Q1026.1 106.1 1026.1 105.8V105.6Q1026.1 105.4 1026.3 105.2Q1026.4 105 1026.9 105Q1027.3 105 1027.5 105.2Q1027.6 105.4 1027.6 105.6V105.8Q1027.6 106.1 1027.5 106.3Q1027.3 106.4 1026.9 106.4ZM1024.2 113.2H1026.4V108.6H1024.2V107.8H1027.3V113.2H1029.4V114H1024.2ZM1031.9 107.8H1032.9V108.8H1032.9Q1033.5 107.7 1034.9 107.7Q1036 107.7 1036.6 108.5Q1037.3 109.4 1037.3 110.9Q1037.3 112.4 1036.6 113.3Q1036 114.1 1034.9 114.1Q1033.5 114.1 1032.9 113H1032.9V116.4H1031.9ZM1034.5 113.3Q1035.3 113.3 1035.8 112.8Q1036.2 112.3 1036.2 111.4V110.4Q1036.2 109.5 1035.8 109Q1035.3 108.5 1034.5 108.5Q1034.2 108.5 1033.9 108.6Q1033.6 108.7 1033.4 108.8Q1033.2 109 1033 109.2Q1032.9 109.5 1032.9 109.8V112Q1032.9 112.3 1033 112.6Q1033.2 112.8 1033.4 113Q1033.6 113.1 1033.9 113.2Q1034.2 113.3 1034.5 113.3ZM1050.3 114.1Q1049.3 114.1 1048.6 113.8Q1047.9 113.5 1047.4 112.9L1048.1 112.4Q1048.5 112.8 1049.1 113.1Q1049.6 113.3 1050.3 113.3Q1051.1 113.3 1051.5 113.1Q1052 112.8 1052 112.3Q1052 112 1051.9 111.9Q1051.8 111.7 1051.6 111.6Q1051.5 111.5 1051.3 111.5Q1051.1 111.4 1050.9 111.4L1049.9 111.2Q1049.6 111.2 1049.2 111.1Q1048.8 111 1048.5 110.8Q1048.2 110.6 1048 110.3Q1047.8 110 1047.8 109.5Q1047.8 109 1048 108.7Q1048.2 108.4 1048.5 108.1Q1048.8 107.9 1049.3 107.8Q1049.7 107.7 1050.3 107.7Q1051.1 107.7 1051.7 107.9Q1052.4 108.2 1052.8 108.7L1052.2 109.2Q1052.1 109.1 1051.9 109Q1051.8 108.8 1051.5 108.7Q1051.3 108.6 1051 108.5Q1050.7 108.5 1050.3 108.5Q1049.5 108.5 1049.1 108.7Q1048.7 109 1048.7 109.5Q1048.7 109.7 1048.8 109.9Q1048.9 110 1049.1 110.1Q1049.2 110.2 1049.4 110.3Q1049.6 110.3 1049.8 110.4L1050.8 110.5Q1051.1 110.5 1051.5 110.6Q1051.9 110.7 1052.2 110.9Q1052.5 111.1 1052.7 111.4Q1052.9 111.7 1052.9 112.2Q1052.9 113.1 1052.2 113.6Q1051.5 114.1 1050.3 114.1ZM1055.7 107.8H1056.7V108.8H1056.7Q1057.3 107.7 1058.6 107.7Q1059.8 107.7 1060.4 108.5Q1061 109.4 1061 110.9Q1061 112.4 1060.4 113.3Q1059.8 114.1 1058.6 114.1Q1057.3 114.1 1056.7 113H1056.7V116.4H1055.7ZM1058.2 113.3Q1059.1 113.3 1059.5 112.8Q1060 112.3 1060 111.4V110.4Q1060 109.5 1059.5 109Q1059.1 108.5 1058.2 108.5Q1057.9 108.5 1057.6 108.6Q1057.3 108.7 1057.1 108.8Q1056.9 109 1056.8 109.2Q1056.7 109.5 1056.7 109.8V112Q1056.7 112.3 1056.8 112.6Q1056.9 112.8 1057.1 113Q1057.3 113.1 1057.6 113.2Q1057.9 113.3 1058.2 113.3ZM1068.4 114Q1067.9 114 1067.6 113.7Q1067.4 113.4 1067.3 113H1067.3Q1067.1 113.5 1066.6 113.8Q1066.2 114.1 1065.4 114.1Q1064.4 114.1 1063.8 113.6Q1063.3 113.1 1063.3 112.3Q1063.3 111.4 1063.9 110.9Q1064.5 110.5 1065.9 110.5H1067.3V109.8Q1067.3 109.2 1066.9 108.8Q1066.5 108.5 1065.8 108.5Q1065.2 108.5 1064.8 108.7Q1064.4 109 1064.1 109.4L1063.5 108.9Q1063.6 108.7 1063.8 108.4Q1064 108.2 1064.3 108Q1064.6 107.9 1065 107.8Q1065.4 107.7 1065.8 107.7Q1066.9 107.7 1067.6 108.2Q1068.2 108.8 1068.2 109.8V113.2H1069.1V114ZM1065.6 113.3Q1065.9 113.3 1066.2 113.2Q1066.5 113.2 1066.8 113Q1067 112.9 1067.1 112.7Q1067.3 112.4 1067.3 112.2V111.2H1065.9Q1065.1 111.2 1064.7 111.4Q1064.3 111.7 1064.3 112.1V112.4Q1064.3 112.8 1064.6 113.1Q1065 113.3 1065.6 113.3ZM1071.3 113.2H1073.1V108.6H1071.3V107.8H1074.1V109.4H1074.2Q1074.3 108.6 1074.9 108.2Q1075.4 107.8 1076.2 107.8H1077.1V108.8H1075.9Q1075.1 108.8 1074.6 109.2Q1074.1 109.7 1074.1 110.5V113.2H1076.5V114H1071.3ZM1079.6 105.1H1080.5V110.7H1080.6L1081.7 109.7L1083.7 107.8H1084.9L1082.3 110.2L1085.2 114H1084L1081.6 110.8L1080.5 111.8V114H1079.6ZM1089.9 114.1Q1088.9 114.1 1088.2 113.8Q1087.5 113.5 1087 112.9L1087.7 112.4Q1088.1 112.8 1088.7 113.1Q1089.2 113.3 1089.9 113.3Q1090.7 113.3 1091.1 113.1Q1091.6 112.8 1091.6 112.3Q1091.6 112 1091.5 111.9Q1091.4 111.7 1091.2 111.6Q1091.1 111.5 1090.9 111.5Q1090.7 111.4 1090.5 111.4L1089.5 111.2Q1089.2 111.2 1088.8 111.1Q1088.4 111 1088.1 110.8Q1087.8 110.6 1087.6 110.3Q1087.4 110 1087.4 109.5Q1087.4 109 1087.6 108.7Q1087.8 108.4 1088.1 108.1Q1088.4 107.9 1088.9 107.8Q1089.3 107.7 1089.9 107.7Q1090.7 107.7 1091.3 107.9Q1092 108.2 1092.4 108.7L1091.8 109.2Q1091.7 109.1 1091.5 109Q1091.4 108.8 1091.1 108.7Q1090.9 108.6 1090.6 108.5Q1090.3 108.5 1089.9 108.5Q1089.1 108.5 1088.7 108.7Q1088.3 109 1088.3 109.5Q1088.3 109.7 1088.4 109.9Q1088.5 110 1088.7 110.1Q1088.8 110.2 1089 110.3Q1089.2 110.3 1089.4 110.4L1090.4 110.5Q1090.7 110.5 1091.1 110.6Q1091.5 110.7 1091.8 110.9Q1092.1 111.1 1092.3 111.4Q1092.5 111.7 1092.5 112.2Q1092.5 113.1 1091.8 113.6Q1091.1 114.1 1089.9 114.1ZM1105.7 114.1Q1105 114.1 1104.5 113.9Q1104 113.7 1103.6 113.3Q1103.3 112.8 1103.1 112.2Q1102.9 111.6 1102.9 110.9Q1102.9 110.2 1103.1 109.6Q1103.3 109 1103.6 108.5Q1104 108.1 1104.5 107.9Q1105 107.7 1105.7 107.7Q1106.3 107.7 1106.9 107.9Q1107.4 108.1 1107.7 108.5Q1108.1 109 1108.3 109.6Q1108.5 110.2 1108.5 110.9Q1108.5 111.6 1108.3 112.2Q1108.1 112.8 1107.7 113.3Q1107.4 113.7 1106.9 113.9Q1106.3 114.1 1105.7 114.1ZM1105.7 113.3Q1106.5 113.3 1107 112.8Q1107.5 112.4 1107.5 111.3V110.5Q1107.5 109.5 1107 109Q1106.5 108.5 1105.7 108.5Q1104.9 108.5 1104.4 109Q1103.9 109.5 1103.9 110.5V111.3Q1103.9 112.4 1104.4 112.8Q1104.9 113.3 1105.7 113.3ZM1111 113.2H1113.1V108.6H1110.9V107.8H1113.1V106.5Q1113.1 105.9 1113.4 105.5Q1113.7 105.1 1114.5 105.1H1116.5V105.9H1114V107.8H1116.5V108.6H1114V113.2H1116.3V114H1111ZM1131.6 114 1130.9 111.6H1128L1127.3 114H1126.2L1128.8 105.6H1130.1L1132.7 114ZM1129.5 106.7H1129.4L1128.2 110.7H1130.7ZM1134.8 114V113.2H1136.9V106.4H1134.8V105.6H1140V106.4H1137.9V113.2H1140V114ZM1153.5 114Q1152.8 114 1152.5 113.6Q1152.1 113.2 1152.1 112.6V108.6H1150.1V107.8H1151.6Q1151.9 107.8 1152 107.7Q1152.2 107.6 1152.2 107.2V105.6H1153.1V107.8H1155.9V108.6H1153.1V113.2H1155.9V114ZM1161.1 114.1Q1160.5 114.1 1160 113.9Q1159.4 113.7 1159.1 113.3Q1158.7 112.8 1158.5 112.2Q1158.3 111.6 1158.3 110.9Q1158.3 110.2 1158.5 109.6Q1158.7 109 1159.1 108.5Q1159.4 108.1 1160 107.9Q1160.5 107.7 1161.1 107.7Q1161.8 107.7 1162.3 107.9Q1162.8 108.1 1163.2 108.5Q1163.5 109 1163.7 109.6Q1163.9 110.2 1163.9 110.9Q1163.9 111.6 1163.7 112.2Q1163.5 112.8 1163.2 113.3Q1162.8 113.7 1162.3 113.9Q1161.8 114.1 1161.1 114.1ZM1161.1 113.3Q1161.9 113.3 1162.4 112.8Q1162.9 112.4 1162.9 111.3V110.5Q1162.9 109.5 1162.4 109Q1161.9 108.5 1161.1 108.5Q1160.3 108.5 1159.8 109Q1159.3 109.5 1159.3 110.5V111.3Q1159.3 112.4 1159.8 112.8Q1160.3 113.3 1161.1 113.3ZM1177.3 114Q1176.6 114 1176.2 113.6Q1175.9 113.2 1175.9 112.6V108.6H1173.8V107.8H1175.4Q1175.7 107.8 1175.8 107.7Q1175.9 107.6 1175.9 107.2V105.6H1176.9V107.8H1179.7V108.6H1176.9V113.2H1179.7V114ZM1182.5 105.1H1183.4V108.8H1183.5Q1183.6 108.6 1183.7 108.4Q1183.8 108.2 1184.1 108Q1184.3 107.9 1184.6 107.8Q1184.8 107.7 1185.2 107.7Q1186.2 107.7 1186.8 108.3Q1187.4 108.9 1187.4 110V114H1186.4V110.2Q1186.4 109.3 1186 108.9Q1185.7 108.5 1185 108.5Q1184.7 108.5 1184.4 108.6Q1184.1 108.7 1183.9 108.8Q1183.7 108.9 1183.5 109.2Q1183.4 109.4 1183.4 109.7V114H1182.5ZM1192.9 114.1Q1192.2 114.1 1191.7 113.9Q1191.2 113.7 1190.8 113.3Q1190.4 112.8 1190.2 112.2Q1190 111.6 1190 110.9Q1190 110.2 1190.2 109.6Q1190.4 109 1190.8 108.5Q1191.2 108.1 1191.7 107.9Q1192.2 107.7 1192.8 107.7Q1193.5 107.7 1194 107.9Q1194.5 108.1 1194.9 108.5Q1195.2 108.9 1195.4 109.5Q1195.6 110 1195.6 110.7V111.1H1191V111.4Q1191 111.8 1191.1 112.2Q1191.3 112.5 1191.5 112.8Q1191.8 113 1192.1 113.2Q1192.5 113.3 1192.9 113.3Q1193.5 113.3 1194 113Q1194.4 112.7 1194.7 112.2L1195.4 112.7Q1195.1 113.3 1194.5 113.7Q1193.8 114.1 1192.9 114.1ZM1192.8 108.5Q1192.5 108.5 1192.1 108.6Q1191.8 108.7 1191.5 109Q1191.3 109.2 1191.2 109.6Q1191 109.9 1191 110.3V110.4H1194.6V110.3Q1194.6 109.9 1194.4 109.5Q1194.3 109.2 1194.1 109Q1193.9 108.7 1193.6 108.6Q1193.2 108.5 1192.8 108.5ZM1208.7 114.1Q1208.1 114.1 1207.5 113.9Q1207 113.7 1206.6 113.3Q1206.3 112.8 1206 112.2Q1205.8 111.6 1205.8 110.9Q1205.8 110.2 1206.1 109.6Q1206.3 109 1206.6 108.5Q1207 108.1 1207.5 107.9Q1208.1 107.7 1208.7 107.7Q1209.3 107.7 1209.8 107.9Q1210.3 108.1 1210.7 108.5Q1211.1 108.9 1211.2 109.5Q1211.4 110 1211.4 110.7V111.1H1206.9V111.4Q1206.9 111.8 1207 112.2Q1207.1 112.5 1207.4 112.8Q1207.6 113 1208 113.2Q1208.3 113.3 1208.7 113.3Q1209.4 113.3 1209.8 113Q1210.3 112.7 1210.5 112.2L1211.2 112.7Q1211 113.3 1210.3 113.7Q1209.7 114.1 1208.7 114.1ZM1208.7 108.5Q1208.3 108.5 1208 108.6Q1207.6 108.7 1207.4 109Q1207.1 109.2 1207 109.6Q1206.9 109.9 1206.9 110.3V110.4H1210.4V110.3Q1210.4 109.9 1210.3 109.5Q1210.2 109.2 1209.9 109Q1209.7 108.7 1209.4 108.6Q1209.1 108.5 1208.7 108.5ZM1218.1 113H1218Q1217.4 114.1 1216.1 114.1Q1215 114.1 1214.3 113.3Q1213.7 112.4 1213.7 110.9Q1213.7 109.4 1214.3 108.5Q1215 107.7 1216.1 107.7Q1217.4 107.7 1218 108.8H1218.1V105.1H1219V114H1218.1ZM1216.5 113.3Q1216.8 113.3 1217.1 113.2Q1217.4 113.1 1217.6 113Q1217.8 112.8 1217.9 112.6Q1218.1 112.3 1218.1 112V109.8Q1218.1 109.5 1217.9 109.2Q1217.8 109 1217.6 108.8Q1217.4 108.7 1217.1 108.6Q1216.8 108.5 1216.5 108.5Q1215.6 108.5 1215.2 109Q1214.7 109.5 1214.7 110.4V111.4Q1214.7 112.3 1215.2 112.8Q1215.6 113.3 1216.5 113.3ZM1227.6 114.7Q1227.6 115.6 1226.8 116.1Q1226.1 116.5 1224.5 116.5Q1223 116.5 1222.3 116.1Q1221.7 115.8 1221.7 115Q1221.7 114.5 1221.9 114.2Q1222.2 114 1222.7 113.8V113.7Q1222.4 113.5 1222.3 113.3Q1222.1 113.1 1222.1 112.8Q1222.1 112.3 1222.5 112.1Q1222.8 111.9 1223.3 111.7V111.7Q1222.7 111.4 1222.4 111Q1222 110.5 1222 109.8Q1222 109.3 1222.2 108.9Q1222.4 108.5 1222.7 108.3Q1223 108 1223.5 107.8Q1223.9 107.7 1224.4 107.7Q1225.1 107.7 1225.7 107.9V107.8Q1225.7 107.4 1225.8 107.2Q1226 107 1226.4 107H1227.6V107.8H1226.2V108.2Q1226.5 108.5 1226.7 108.9Q1226.9 109.3 1226.9 109.8Q1226.9 110.3 1226.7 110.7Q1226.5 111.1 1226.2 111.3Q1225.9 111.6 1225.4 111.8Q1225 111.9 1224.4 111.9Q1224.3 111.9 1224.1 111.9Q1224 111.9 1223.9 111.9Q1223.7 111.9 1223.6 112Q1223.4 112 1223.3 112.1Q1223.1 112.2 1223.1 112.3Q1223 112.4 1223 112.6Q1223 112.9 1223.2 113Q1223.5 113.1 1224 113.1H1225.3Q1226.5 113.1 1227.1 113.5Q1227.6 114 1227.6 114.7ZM1226.7 114.8Q1226.7 114.4 1226.4 114.2Q1226.1 113.9 1225.4 113.9H1223.2Q1222.6 114.2 1222.6 114.8Q1222.6 115.2 1222.9 115.5Q1223.2 115.8 1224 115.8H1224.9Q1225.8 115.8 1226.2 115.5Q1226.7 115.3 1226.7 114.8ZM1224.4 111.2Q1225.2 111.2 1225.5 110.9Q1225.8 110.5 1225.8 110V109.6Q1225.8 109.1 1225.5 108.7Q1225.2 108.4 1224.4 108.4Q1223.7 108.4 1223.4 108.7Q1223.1 109.1 1223.1 109.6V110Q1223.1 110.5 1223.4 110.9Q1223.7 111.2 1224.4 111.2ZM1232.5 114.1Q1231.8 114.1 1231.3 113.9Q1230.8 113.7 1230.4 113.3Q1230 112.8 1229.8 112.2Q1229.6 111.6 1229.6 110.9Q1229.6 110.2 1229.8 109.6Q1230 109 1230.4 108.5Q1230.8 108.1 1231.3 107.9Q1231.8 107.7 1232.4 107.7Q1233.1 107.7 1233.6 107.9Q1234.1 108.1 1234.5 108.5Q1234.8 108.9 1235 109.5Q1235.2 110 1235.2 110.7V111.1H1230.6V111.4Q1230.6 111.8 1230.7 112.2Q1230.9 112.5 1231.1 112.8Q1231.4 113 1231.7 113.2Q1232.1 113.3 1232.5 113.3Q1233.1 113.3 1233.6 113Q1234 112.7 1234.3 112.2L1235 112.7Q1234.7 113.3 1234.1 113.7Q1233.4 114.1 1232.5 114.1ZM1232.4 108.5Q1232.1 108.5 1231.7 108.6Q1231.4 108.7 1231.1 109Q1230.9 109.2 1230.8 109.6Q1230.6 109.9 1230.6 110.3V110.4H1234.2V110.3Q1234.2 109.9 1234 109.5Q1233.9 109.2 1233.7 109Q1233.5 108.7 1233.2 108.6Q1232.8 108.5 1232.4 108.5Z" fill="#5E5B57" ><title>//  I ship sparks of AI to the edge</title></path><path d="M44 136H1236" stroke="#2A2826" stroke-width="1"/><path d="M44 136H1236" stroke="#FF4D12" stroke-width="1.6" pathLength="1" stroke-dasharray="1" stroke-dashoffset="1"><animate attributeName="stroke-dashoffset" values="1;1;0;0;1" keyTimes="0.0000;0.0222;0.2444;0.9333;1.0000" dur="9.0s" repeatCount="indefinite"/></path><g><circle cx="0" cy="0" r="13" fill="url(#spark)"><animate attributeName="r" values="13;19.5;13" dur="1.6s" repeatCount="indefinite"/></circle><path d="M0 -11.700000000000001L1.4 -1.4L11.700000000000001 0L1.4 1.4L0 11.700000000000001L-1.4 1.4L-11.700000000000001 0L-1.4 -1.4Z" fill="#fff" opacity=".9"/><animateMotion path="M44 136H1236" keyPoints="0;0;1;1" keyTimes="0.0000;0.0222;0.2444;1.0000" calcMode="linear" dur="9.0s" repeatCount="indefinite"/><animate attributeName="opacity" values="0;1;1;0;0" keyTimes="0.0000;0.0222;0.9111;0.9556;1.0000" dur="9.0s" repeatCount="indefinite"/></g></svg>